<?xml version="1.0" encoding="UTF-8"?>
<svg width="139px" height="48px" viewBox="0 0 139 48" version="1.1" xmlns="http://www.w3.org/2000/svg" xmlns:xlink="http://www.w3.org/1999/xlink">
    <title>Group@3x</title>
    <defs>
        <filter id="filter-1">
            <feColorMatrix in="SourceGraphic" type="matrix" values="0 0 0 0 0.000000 0 0 0 0 0.000000 0 0 0 0 0.000000 0 0 0 1.000000 0"></feColorMatrix>
        </filter>
        <filter id="filter-2">
            <feColorMatrix in="SourceGraphic" type="matrix" values="0 0 0 0 0.000000 0 0 0 0 0.000000 0 0 0 0 0.000000 0 0 0 1.000000 0"></feColorMatrix>
        </filter>
    </defs>
    <g id="Symbols" stroke="none" stroke-width="1" fill="none" fill-rule="evenodd">
        <g id="MinimalistLogodesignset_d4ca88fa-bbf0-4f3e-afef-e5b4e9a9f851" transform="translate(-493.000000, -724.000000)">
            <g id="Group" transform="translate(10.200000, 513.000000)" filter="url(#filter-1)">
                <g transform="translate(483.400000, 211.200000)">
                    <g filter="url(#filter-2)">
                        <g transform="translate(0.000000, 15.300000)">
                            <path d="M19.9,0.2 L19.9,0.4 L18.6,0.4 C18.3,0.4 18,0.5 17.8,0.7 C17.6,0.9 17.5,1.2 17.5,1.5 L17.5,17 L17.3,17 C16.9,17 16.5,16.8 15.9,16.4 C15.3,16 14.7,15.5 14,14.8 C13.3,14.2 12.6,13.4 11.8,12.6 C11,11.8 10.3,10.9 9.5,10.1 C7.7,8.1 5.9,5.8 3.9,3.3 L3.9,15.6 C3.9,15.9 4,16.2 4.2,16.4 C4.4,16.6 4.7,16.7 5,16.7 L6.3,16.7 L6.3,16.9 L1.3,16.9 L1.3,16.7 L2.6,16.7 C2.9,16.7 3.2,16.6 3.4,16.4 C3.6,16.2 3.7,15.9 3.7,15.6 L3.7,3.1 L2.7,2.1 C2.3,1.7 2,1.5 1.7,1.2 C1.4,1 1.1,0.8 0.8,0.6 C0.5,0.4 0.2,0.3 0,0.2 L0,1.13686838e-13 L5.2,1.13686838e-13 C5.6,1.13686838e-13 5.9,1.13686838e-13 6.4,0.2 C6.8,0.3 7.2,0.5 7.6,0.7 C8.1,0.9 8.5,1.2 9,1.7 C9.5,2.1 10,2.6 10.6,3.2 C11.2,3.8 11.7,4.3 12.3,5 C12.9,5.6 13.4,6.2 14,6.9 C14.6,7.5 15.1,8.1 15.5,8.7 C16,9.3 16.3,9.7 16.7,10.2 C17,10.6 17.2,11 17.4,11.2 L17.4,1.5 C17.4,1.2 17.3,0.9 17.1,0.7 C16.9,0.5 16.6,0.4 16.3,0.4 L15,0.4 L15,0.2 L20,0.2 L19.9,0.2 Z" id="Path" fill="#F1F2F2" fill-rule="nonzero"></path>
                            <path d="M34.5,1.4 C34.9,1.7 35.3,2.2 35.7,2.7 C36.1,3.2 36.4,3.8 36.6,4.4 C36.9,5 37.1,5.7 37.2,6.4 C37.3,7.1 37.4,7.9 37.4,8.6 C37.4,9.3 37.4,10.1 37.2,10.8 C37.1,11.5 36.9,12.2 36.6,12.8 C36.3,13.4 36,14 35.7,14.5 C35.3,15 34.9,15.5 34.5,15.8 C34.1,16.1 33.8,16.3 33.4,16.5 C33,16.7 32.6,16.8 32.2,16.9 C31.8,16.9 31.3,17.1 30.8,17.1 C30.3,17.1 29.7,17.1 29.1,17.1 L28.1,17.1 C27.5,17.1 26.9,17.1 26.4,17.1 C25.9,17.1 25.4,17.1 25,16.9 C24.6,16.9 24.2,16.7 23.8,16.5 C23.4,16.3 23.1,16.1 22.7,15.8 C22.3,15.5 21.9,15 21.5,14.5 C21.1,14 20.8,13.4 20.6,12.8 C20.3,12.2 20.1,11.5 20,10.8 C19.9,10.1 19.8,9.3 19.8,8.6 C19.8,7.9 19.8,7.1 20,6.4 C20.1,5.7 20.4,5 20.6,4.4 C20.9,3.8 21.2,3.2 21.5,2.7 C21.9,2.2 22.3,1.7 22.7,1.4 C23.1,1.1 23.4,0.9 23.8,0.7 C24.2,0.5 24.6,0.4 25,0.3 C25.4,0.3 25.9,0.1 26.4,0.1 C26.9,0.1 27.5,0.1 28.1,0.1 L29.2,0.1 C29.8,0.1 30.4,0.1 30.9,0.1 C31.4,0.1 31.9,0.1 32.3,0.3 C32.7,0.3 33.1,0.5 33.5,0.7 C33.9,0.9 34.2,1.1 34.6,1.4 L34.5,1.4 Z M31.5,8 C31.5,7.4 31.5,6.8 31.5,6 C31.5,5.3 31.4,4.5 31.3,3.8 C31.2,3.1 31,2.4 30.8,1.8 C30.6,1.2 30.3,0.8 30,0.5 C29.8,0.4 29.7,0.3 29.6,0.2 C29.5,0.2 29.4,0.2 29.2,0.2 L28.1,0.2 C27.9,0.2 27.8,0.2 27.7,0.2 C27.6,0.2 27.5,0.3 27.3,0.5 C26.9,0.8 26.7,1.2 26.4,1.8 C26.2,2.4 26,3.1 25.9,3.8 C25.8,4.5 25.7,5.2 25.7,6 C25.7,6.7 25.7,7.4 25.7,8 L25.7,9.3 C25.7,9.9 25.7,10.5 25.7,11.3 C25.7,12 25.8,12.8 25.9,13.5 C26,14.2 26.2,14.9 26.4,15.5 C26.6,16.1 26.9,16.5 27.3,16.8 C27.5,16.9 27.6,17 27.7,17.1 C27.8,17.1 27.9,17.1 28.1,17.1 L29.2,17.1 C29.4,17.1 29.5,17.1 29.6,17.1 C29.7,17.1 29.8,17 30,16.8 C30.4,16.5 30.6,16.1 30.8,15.5 C31,14.9 31.2,14.2 31.3,13.5 C31.4,12.8 31.5,12.1 31.5,11.3 C31.5,10.6 31.5,9.9 31.5,9.3 L31.5,8 Z" id="Shape" fill="#F1F2F2" fill-rule="nonzero"></path>
                            <path d="M53.4,1.5 C53.4,1.2 53.3,0.9 53.1,0.7 C52.9,0.5 52.6,0.4 52.3,0.4 L51,0.4 L51,0.2 L56,0.2 L56,0.4 L54.7,0.4 C54.4,0.4 54.1,0.5 53.9,0.7 C53.7,0.9 53.6,1.2 53.6,1.5 L53.6,12.9 C53.6,13.4 53.5,14 53.2,14.6 C52.9,15.2 52.4,15.8 51.6,16.3 C51,16.7 50.3,17 49.6,17.1 C48.9,17.1 48.1,17.2 47.4,17.2 C46.7,17.2 46,17.2 45.3,17 C44.6,16.9 43.9,16.7 43.2,16.4 C42.9,16.2 42.5,16.1 42.2,15.8 C41.9,15.6 41.6,15.3 41.4,15 C40.9,14.3 40.6,13.5 40.6,12.5 L40.6,0.2 L38.2,0.2 L38.2,2.27373675e-13 L47.6,2.27373675e-13 L47.6,0.2 L46.1,0.2 L46.1,12.4 C46.1,12.9 46.1,13.4 46.3,13.8 C46.4,14.2 46.6,14.6 46.8,14.8 C47.1,15.2 47.5,15.5 48,15.8 C48.5,16.1 49,16.2 49.6,16.2 C50.2,16.2 50.4,16.2 50.8,16 C51.1,16 51.5,15.7 51.8,15.5 C52.1,15.3 52.4,15 52.6,14.7 C52.8,14.4 53,14.1 53.2,13.7 C53.3,13.4 53.4,13 53.4,12.7 L53.4,1.3 L53.4,1.5 Z" id="Path" fill="#F1F2F2" fill-rule="nonzero"></path>
                            <path d="M72.7,0.2 L72.7,0.4 L71.6,0.4 C71.3,0.4 71,0.5 70.7,0.8 C70.4,1 70.2,1.3 70.2,1.6 L66.5,17.1 L64.1,17.1 C63.9,16.7 63.6,16.2 63.3,15.5 C63,14.8 62.6,14 62.1,13.1 C61.6,12.2 61.2,11.2 60.7,10.2 C60.2,9.2 59.7,8.2 59.3,7.2 C58.8,6.2 58.4,5.3 57.9,4.5 C57.4,3.6 57,2.9 56.7,2.4 C56.4,1.9 56.1,1.6 55.9,1.3 C55.6,1 55.4,0.8 55.3,0.7 C55.1,0.6 54.9,0.5 54.7,0.5 L54.7,0.3 L58.8,0.3 C59,0.3 59.3,0.3 59.5,0.3 C59.7,0.3 60,0.3 60.3,0.5 C60.6,0.6 60.9,0.8 61.2,1 C61.5,1.2 61.8,1.6 62.2,2 C62.5,2.4 62.8,2.8 63.2,3.4 C63.6,4 63.9,4.6 64.2,5.2 C64.6,5.9 64.9,6.5 65.2,7.2 C65.5,7.9 65.9,8.5 66.2,9.1 C66.5,9.7 66.8,10.2 67,10.6 C67.2,11 67.4,11.3 67.6,11.5 L70,1.5 C70,1.5 70,1.3 70,1.2 C70,0.9 70,0.7 69.8,0.6 C69.6,0.4 69.4,0.4 69.2,0.4 L67.9,0.4 L67.9,0.2 L72.7,0.2 L72.7,0.2 Z" id="Path" fill="#F1F2F2" fill-rule="nonzero"></path>
                            <path d="M86.4,14.8 C86.7,14.3 87,13.9 87.1,13.5 C87.3,13.1 87.4,12.8 87.5,12.4 C87.5,12.1 87.6,11.7 87.6,11.4 C87.6,11.1 87.6,10.8 87.6,10.5 L87.8,10.5 L87.8,16.9 L72.6,16.9 L72.6,16.7 L74.7,16.7 L74.7,0.2 L72.6,0.2 L72.6,1.13686838e-13 L87.4,1.13686838e-13 L87.4,5.6 L87.2,5.6 C87.2,5.2 87.2,4.9 87.2,4.6 C87.2,4.3 87.2,4 87.1,3.8 C87.1,3.5 86.9,3.2 86.8,2.9 C86.7,2.6 86.5,2.3 86.2,1.9 C85.9,1.5 85.6,1.2 85.3,0.9 C85,0.7 84.7,0.5 84.3,0.4 C84,0.3 83.6,0.2 83.2,0.2 C82.8,0.2 82.4,0.2 82,0.2 L80.4,0.2 L80.4,8.1 L81.4,8.1 C81.7,8.1 82,8.1 82.2,8.1 C82.4,8.1 82.7,8.1 82.9,8 C83.1,8 83.3,7.8 83.5,7.7 C83.7,7.6 83.9,7.4 84,7.1 C84.3,6.7 84.5,6.3 84.7,5.9 C84.9,5.5 84.9,5.1 84.9,4.6 L85.1,4.6 L85.1,12 L84.9,12 C84.9,11.5 84.9,11.1 84.7,10.7 C84.5,10.3 84.3,9.9 84,9.5 C83.7,9 83.3,8.7 82.9,8.6 C82.5,8.5 82,8.4 81.4,8.4 L80.4,8.4 L80.4,16.8 L82.4,16.8 C82.9,16.8 83.2,16.8 83.6,16.8 C83.9,16.8 84.3,16.8 84.6,16.6 C84.9,16.5 85.2,16.3 85.5,16 C85.8,15.7 86.1,15.3 86.5,14.8 L86.4,14.8 Z" id="Path" fill="#F1F2F2" fill-rule="nonzero"></path>
                            <path d="M103.4,14.7 C103.7,14.2 104,13.8 104.1,13.3 C104.3,12.8 104.4,12.4 104.5,11.9 C104.5,11.4 104.6,11 104.7,10.6 C104.7,10.2 104.7,9.9 104.7,9.6 L104.9,9.6 L104.9,17.1 L90,17.1 L90,16.9 L92.4,16.9 L92.4,0.4 L90,0.4 L90,0.2 L100.1,0.2 L100.1,0.4 L97.7,0.4 L97.7,16.9 L98.4,16.9 C98.9,16.9 99.3,16.9 99.8,16.9 C100.3,16.9 100.7,16.7 101.2,16.6 C101.6,16.4 102.1,16.2 102.5,15.9 C102.9,15.6 103.2,15.2 103.6,14.8 L103.4,14.7 Z" id="Path" fill="#F1F2F2" fill-rule="nonzero"></path>
                            <path d="M119.4,14.7 C119.7,14.2 120,13.8 120.1,13.3 C120.3,12.8 120.4,12.4 120.5,11.9 C120.5,11.4 120.6,11 120.7,10.6 C120.7,10.2 120.7,9.9 120.7,9.6 L120.9,9.6 L120.9,17.1 L106,17.1 L106,16.9 L108.4,16.9 L108.4,0.4 L106,0.4 L106,0.2 L116.1,0.2 L116.1,0.4 L113.7,0.4 L113.7,16.9 L114.4,16.9 C114.8,16.9 115.3,16.9 115.8,16.9 C116.3,16.9 116.7,16.7 117.2,16.6 C117.6,16.4 118.1,16.2 118.5,15.9 C118.9,15.6 119.3,15.2 119.6,14.8 L119.4,14.7 Z" id="Path" fill="#F1F2F2" fill-rule="nonzero"></path>
                            <path d="M136.1,14.8 C136.4,14.3 136.7,13.9 136.8,13.5 C137,13.1 137.1,12.8 137.2,12.4 C137.2,12.1 137.3,11.7 137.3,11.4 C137.3,11.1 137.3,10.8 137.3,10.5 L137.5,10.5 L137.5,16.9 L122.3,16.9 L122.3,16.7 L124.4,16.7 L124.4,0.2 L122.3,0.2 L122.3,1.13686838e-13 L137.1,1.13686838e-13 L137.1,5.6 L136.9,5.6 C136.9,5.2 136.9,4.9 136.9,4.6 C136.9,4.3 136.9,4 136.8,3.8 C136.8,3.5 136.6,3.2 136.5,2.9 C136.4,2.6 136.2,2.3 135.9,1.9 C135.6,1.5 135.3,1.2 135,0.9 C134.7,0.7 134.4,0.5 134,0.4 C133.7,0.3 133.3,0.2 132.9,0.2 C132.5,0.2 132.1,0.2 131.7,0.2 L130.1,0.2 L130.1,8.1 L131.1,8.1 C131.4,8.1 131.7,8.1 131.9,8.1 C132.1,8.1 132.4,8.1 132.6,8 C132.8,8 133,7.8 133.2,7.7 C133.4,7.6 133.6,7.4 133.7,7.1 C134,6.7 134.2,6.3 134.4,5.9 C134.6,5.5 134.6,5.1 134.6,4.6 L134.8,4.6 L134.8,12 L134.6,12 C134.6,11.5 134.6,11.1 134.4,10.7 C134.2,10.3 134,9.9 133.7,9.5 C133.4,9 133,8.7 132.6,8.6 C132.2,8.5 131.7,8.4 131.1,8.4 L130.1,8.4 L130.1,16.8 L132.1,16.8 C132.5,16.8 132.9,16.8 133.3,16.8 C133.6,16.8 134,16.8 134.3,16.6 C134.6,16.5 134.9,16.3 135.2,16 C135.5,15.7 135.8,15.3 136.2,14.8 L136.1,14.8 Z" id="Path" fill="#F1F2F2" fill-rule="nonzero"></path>
                        </g>
                    </g>
                    <path d="M132.8,44 C131.8,44 131.1,44.8 131.1,45.7 C131.1,46.6 131.1,45.9 131.1,46 L7.8,46 C7.8,45.9 7.8,45.8 7.8,45.7 C7.8,44.7 7,44 6.1,44 C5.2,44 4.4,44.8 4.4,45.7 C4.4,46.6 5.2,47.4 6.1,47.4 L132.8,47.4 C133.8,47.4 134.5,46.6 134.5,45.7 C134.5,44.8 133.7,44 132.8,44 Z M6.1,46.9 C5.5,46.9 4.9,46.4 4.9,45.7 C4.9,45 5.4,44.5 6.1,44.5 C6.8,44.5 7.3,45 7.3,45.7 C7.3,46.4 6.8,46.9 6.1,46.9 Z M132.8,46.9 C132.2,46.9 131.6,46.4 131.6,45.7 C131.6,45 132.1,44.5 132.8,44.5 C133.5,44.5 134,45 134,45.7 C134,46.4 133.5,46.9 132.8,46.9 Z" id="Shape" fill="#000000" fill-rule="nonzero"></path>
                    <path d="M6.1,3.4 C7.1,3.4 7.8,2.6 7.8,1.7 C7.8,0.8 7.8,1.5 7.8,1.4 L131.1,1.4 C131.1,1.4 131.1,1.6 131.1,1.7 C131.1,2.7 131.9,3.4 132.8,3.4 C133.7,3.4 134.5,2.6 134.5,1.7 C134.5,0.8 133.7,-1.13686838e-13 132.8,-1.13686838e-13 L6.1,-1.13686838e-13 C5.1,-1.13686838e-13 4.4,0.8 4.4,1.7 C4.4,2.6 5.2,3.4 6.1,3.4 Z M132.8,0.5 C133.4,0.5 134,1 134,1.7 C134,2.4 133.5,2.9 132.8,2.9 C132.1,2.9 131.6,2.4 131.6,1.7 C131.6,1 132.1,0.5 132.8,0.5 Z M6.1,0.5 C6.7,0.5 7.3,1 7.3,1.7 C7.3,2.4 6.8,2.9 6.1,2.9 C5.4,2.9 4.9,2.4 4.9,1.7 C4.9,1 5.4,0.5 6.1,0.5 Z" id="Shape" fill="#000000" fill-rule="nonzero"></path>
                </g>
            </g>
        </g>
    </g>
</svg>