<?xml version="1.0" encoding="UTF-8"?>
<svg width="128px" height="51px" viewBox="0 0 128 51" version="1.1" xmlns="http://www.w3.org/2000/svg" xmlns:xlink="http://www.w3.org/1999/xlink">
    <title>Group@3x</title>
    <defs>
        <filter id="filter-1">
            <feColorMatrix in="SourceGraphic" type="matrix" values="0 0 0 0 0.000000 0 0 0 0 0.000000 0 0 0 0 0.000000 0 0 0 1.000000 0"></feColorMatrix>
        </filter>
        <filter id="filter-2">
            <feColorMatrix in="SourceGraphic" type="matrix" values="0 0 0 0 0.200000 0 0 0 0 0.200000 0 0 0 0 0.200000 0 0 0 1.000000 0"></feColorMatrix>
        </filter>
    </defs>
    <g id="Symbols" stroke="none" stroke-width="1" fill="none" fill-rule="evenodd">
        <g id="MinimalistLogodesignset_d4ca88fa-bbf0-4f3e-afef-e5b4e9a9f851" transform="translate(-498.000000, -911.000000)">
            <g id="Group" transform="translate(10.200000, 513.000000)">
                <g transform="translate(488.500000, 398.700000)">
                    <g filter="url(#filter-1)">
                        <g>
                            <path d="M0,17.3 C0,17.2 0,17 0,16.9 C0,16.8 0.1,16.7 0.3,16.6 L11.4,10.4 C11.5,10.4 11.7,10.4 11.8,10.4 C11.9,10.4 12.1,10.5 12.2,10.6 L13.6,13.2 C13.6,13.3 13.6,13.5 13.6,13.6 C13.6,13.8 13.5,13.9 13.3,14 L9.7,16 L16,27.3 C16,27.4 16,27.6 16,27.7 C16,27.8 15.9,28 15.7,28 L12.7,29.7 C12.6,29.7 12.4,29.7 12.3,29.7 C12.1,29.7 12,29.6 12,29.4 L5.7,18.1 L2.2,20.1 C2.1,20.1 1.9,20.1 1.8,20.1 C1.7,20.1 1.5,20 1.4,19.8 L0,17.2 L0,17.3 Z" id="Path" fill="#F1F2F2" fill-rule="nonzero"></path>
                            <path d="M22.8,6.8 C22.8,6.7 22.8,6.5 22.8,6.4 C22.8,6.3 23,6.2 23.1,6.1 L26.4,5.1 C26.5,5.1 26.6,5.1 26.8,5.1 C27,5.1 27.1,5.3 27.1,5.4 L31.8,21.2 C31.8,21.5 31.8,21.8 31.4,21.9 L28.1,22.9 C27.8,23 27.6,22.9 27.5,22.6 L22.8,6.8 L22.8,6.8 Z" id="Path" fill="#F1F2F2" fill-rule="nonzero"></path>
                            <path d="M39.4,2.5 C39.4,2.4 39.4,2.2 39.5,2.1 C39.5,2 39.7,1.9 39.9,1.9 L44,1.4 C44.3,1.4 44.5,1.4 44.6,1.8 L49,12.1 L51,1.1 C51,0.8 51.3,0.6 51.5,0.6 L55.5,0.1 C55.6,0.1 55.8,0.1 55.9,0.2 C56,0.2 56.1,0.4 56.1,0.5 C56.7,3.2 57.3,5.9 57.9,8.6 C58.5,11.3 59.1,14 59.7,16.7 L59.7,16.7 C59.7,17.1 59.6,17.2 59.2,17.3 L55.9,17.7 C55.5,17.7 55.3,17.6 55.3,17.2 L53.2,8.2 L51.6,17.6 C51.6,17.6 51.6,17.8 51.5,17.9 C51.5,18 51.3,18.1 51.2,18.1 L48.1,18.5 C48.1,18.5 47.9,18.5 47.8,18.4 C47.7,18.4 47.6,18.2 47.6,18.1 L43.9,9.3 L43.9,18.5 C43.9,18.8 43.8,19 43.4,19.1 L40.1,19.5 C39.8,19.5 39.6,19.4 39.5,19 L39.3,2.4 L39.4,2.5 Z" id="Path" fill="#F1F2F2" fill-rule="nonzero"></path>
                            <path d="M68.7,0.5 C68.7,0.3 68.7,0.2 68.9,0.1 C68.9,0.1 69.1,0 69.3,0 L77.1,0.5 C77.8,0.5 78.4,0.7 79,1 C79.6,1.3 80.1,1.7 80.5,2.2 C80.9,2.7 81.3,3.2 81.5,3.9 C81.7,4.5 81.8,5.2 81.8,5.9 C81.8,6.5 81.6,7 81.4,7.5 C81.2,8 80.9,8.4 80.5,8.8 C81,9.4 81.4,10 81.7,10.7 C82,11.4 82.1,12.2 82.1,13 C82.1,13.7 81.9,14.4 81.6,15 C81.3,15.6 80.9,16.2 80.4,16.6 C79.9,17.1 79.3,17.4 78.7,17.7 C78.1,17.9 77.4,18 76.7,18 L68.2,17.5 C68,17.5 67.9,17.5 67.8,17.4 C67.8,17.4 67.7,17.2 67.7,17 L68.7,0.5 L68.7,0.5 Z M77.5,12.6 C77.5,12.4 77.5,12.1 77.5,11.9 C77.5,11.7 77.3,11.4 77.2,11.2 C77.1,11 76.9,10.8 76.6,10.7 C76.4,10.6 76.1,10.5 75.9,10.5 L72.8,10.3 L72.6,14.2 L75.7,14.4 C76,14.4 76.2,14.4 76.4,14.3 C76.6,14.3 76.8,14.1 77,13.9 C77.2,13.7 77.3,13.5 77.4,13.3 C77.5,13.1 77.6,12.8 77.6,12.6 L77.5,12.6 Z M77.3,5.7 C77.3,5.5 77.3,5.2 77.3,5 C77.3,4.8 77.1,4.6 77,4.4 C76.8,4.2 76.7,4.1 76.5,4 C76.3,3.9 76,3.8 75.8,3.8 L73.3,3.8 C73.3,3.7 73.1,7.1 73.1,7.1 L75.6,7.1 C75.9,7.3 76.1,7.2 76.3,7.1 C76.5,7.1 76.7,6.9 76.9,6.8 C77.1,6.7 77.2,6.5 77.3,6.3 C77.4,6.1 77.5,5.9 77.5,5.6 L77.3,5.7 Z" id="Shape" fill="#F1F2F2" fill-rule="nonzero"></path>
                            <path d="M92.7,2.8 C92.7,2.6 92.8,2.5 92.9,2.4 C93,2.4 93.1,2.4 93.3,2.4 L104.7,5 C104.9,5 105,5.1 105.1,5.2 C105.1,5.3 105.1,5.5 105.1,5.6 L104.4,8.4 C104.4,8.5 104.3,8.6 104.2,8.7 C104.1,8.7 103.9,8.8 103.8,8.7 L96.3,7 L95.6,9.9 L101.4,11.2 C101.5,11.2 101.7,11.2 101.7,11.4 C101.7,11.4 101.8,11.6 101.7,11.8 L101.1,14.3 C101.1,14.4 101.1,14.5 100.9,14.6 C100.8,14.6 100.7,14.7 100.5,14.6 L94.7,13.3 L94,16.2 L101.7,18 C102,18 102.2,18.3 102.1,18.6 L101.4,21.5 C101.4,21.5 101.4,21.6 101.3,21.7 C101.3,21.9 101,22 100.8,21.9 L89.2,19.2 C89,19.2 88.9,19.1 88.9,19 C88.9,19 88.9,18.8 88.9,18.6 L92.6,2.5 L92.7,2.8 Z" id="Path" fill="#F1F2F2" fill-rule="nonzero"></path>
                            <path d="M116.6,9.6 C116.6,9.5 116.8,9.4 116.9,9.3 C117,9.3 117.2,9.3 117.3,9.3 L124.1,12.7 C124.8,13.1 125.4,13.5 125.9,14.1 C126.4,14.7 126.8,15.3 127,16 C127.2,16.7 127.3,17.4 127.3,18.2 C127.3,19 127.1,19.7 126.7,20.4 C126.5,20.9 126.2,21.3 125.8,21.7 C125.5,22.1 125.1,22.4 124.6,22.6 C124.2,22.9 123.7,23.1 123.3,23.2 C122.8,23.3 122.3,23.4 121.9,23.5 L121.9,30 C122,30.1 122,30.3 122.1,30.4 C122.1,30.6 122.1,30.7 122.1,30.8 C122.1,30.9 122,31 121.9,31 C121.8,31 121.7,31 121.6,31 L118,29.2 C117.9,29.2 117.8,29 117.7,28.9 C117.7,28.8 117.7,28.7 117.7,28.5 L117.7,22.4 C117.6,22.4 115.9,21.5 115.9,21.5 L113.5,26.3 C113.3,26.6 113.1,26.7 112.8,26.5 L109.7,24.9 C109.6,24.9 109.5,24.7 109.4,24.6 C109.4,24.5 109.4,24.3 109.4,24.2 L116.8,9.5 L116.6,9.6 Z M122.5,18.4 C122.6,18.2 122.7,18 122.7,17.7 C122.7,17.5 122.7,17.2 122.7,17 C122.7,16.8 122.6,16.5 122.4,16.3 C122.3,16.1 122.1,15.9 121.9,15.7 C121.7,15.6 121.5,15.5 121.4,15.4 C121.2,15.4 121,15.2 120.8,15.1 L119.3,14.4 L117.4,18.3 L119.3,19.3 C119.4,19.3 119.5,19.4 119.6,19.5 C119.7,19.5 119.8,19.5 119.9,19.6 C120.2,19.6 120.4,19.7 120.7,19.7 C121,19.7 121.2,19.7 121.4,19.5 C121.6,19.4 121.8,19.3 122,19.1 C122.2,18.9 122.3,18.7 122.4,18.5 L122.5,18.4 Z" id="Shape" fill="#F1F2F2" fill-rule="nonzero"></path>
                        </g>
                    </g>
                    <g filter="url(#filter-2)">
                        <g transform="translate(48.000000, 35.800000)">
                            <path d="M12.4,12.9 C11.7,12.9 11,12.9 10.3,13 C8,10.2 5.5,7.5 2.9,4.9 C3.3,7.8 3.7,10.8 4.1,13.7 C3.4,13.7 2.7,13.9 2,14 C1.4,9.9 0.7,5.8 0,1.7 C0.8,1.6 1.6,1.5 2.3,1.4 C5,4 7.6,6.7 10,9.5 C9.8,6.5 9.5,3.6 9.3,0.6 C10.1,0.6 10.9,0.5 11.6,0.4 C11.8,4.6 12.1,8.7 12.3,12.9 L12.4,12.9 Z" id="Path" fill="#A39369" fill-rule="nonzero"></path>
                            <path d="M13.2,4.8 C13.1,2.3 15.3,0 18.2,0 C21.1,0 23.4,2.2 23.2,4.7 C23.1,7.3 20.8,9.2 18.2,9.2 C15.6,9.2 13.3,7.2 13.2,4.7 L13.2,4.8 Z M22.3,12.8 C19.5,12.7 16.8,12.8 14,12.8 C14,12.1 14,11.4 14,10.7 C16.8,10.6 19.6,10.6 22.4,10.7 C22.4,11.4 22.4,12.1 22.4,12.8 L22.3,12.8 Z M15.4,4.7 C15.4,6.1 16.7,7.2 18.2,7.2 C19.7,7.2 20.9,6.1 21,4.7 C21,3.3 19.8,2.1 18.2,2.1 C16.6,2.1 15.4,3.3 15.4,4.7 Z" id="Shape" fill="#A39369" fill-rule="nonzero"></path>
                            <path d="M25.4,11.9 C25.4,12.5 24.8,13 24.2,12.9 C23.6,12.9 23.1,12.3 23.1,11.7 C23.1,11.1 23.7,10.6 24.3,10.6 C25,10.6 25.4,11.2 25.4,11.8 L25.4,11.9 Z" id="Path" fill="#A39369" fill-rule="nonzero"></path>
                            <path d="M34.6,14 C32.2,13.6 29.8,13.3 27.3,13.1 C27.3,12.5 27.4,11.8 27.5,11.2 C29.2,9.3 31,7.4 32.9,5.6 C34.2,4.4 33.5,3.1 32.3,3 C31.5,2.9 30.5,3.2 30.4,4.3 C29.7,4.3 29,4.2 28.3,4.1 C28.5,2.1 29.8,0.6 32.6,0.9 C35.4,1.3 37.5,4.3 34.7,6.9 C33.1,8.3 31.6,9.8 30.2,11.3 C31.8,11.5 33.4,11.7 35,12 C34.9,12.7 34.8,13.4 34.7,14.1 L34.6,14 Z" id="Path" fill="#A39369" fill-rule="nonzero"></path>
                        </g>
                    </g>
                    <path d="M34.2,45.1 C34.2,46.1 33.4,47 32.3,47 C31.2,47 30.4,46.1 30.4,45.1 C30.4,44.1 31.2,43.2 32.3,43.2 C33.4,43.2 34.2,44 34.2,45.1 Z" id="Path" fill="#000000" fill-rule="nonzero"></path>
                    <path d="M100.8,45.1 C100.8,46.1 100,47 98.9,47 C97.8,47 97,46.1 97,45.1 C97,44.1 97.8,43.2 98.9,43.2 C100,43.2 100.8,44 100.8,45.1 Z" id="Path" fill="#000000" fill-rule="nonzero"></path>
                </g>
            </g>
        </g>
    </g>
</svg>