<?xml version="1.0" encoding="UTF-8"?>
<svg width="112px" height="80px" viewBox="0 0 112 80" version="1.1" xmlns="http://www.w3.org/2000/svg" xmlns:xlink="http://www.w3.org/1999/xlink">
    <title>Group@3x</title>
    <defs>
        <filter id="filter-1">
            <feColorMatrix in="SourceGraphic" type="matrix" values="0 0 0 0 0.000000 0 0 0 0 0.000000 0 0 0 0 0.000000 0 0 0 1.000000 0"></feColorMatrix>
        </filter>
        <filter id="filter-2">
            <feColorMatrix in="SourceGraphic" type="matrix" values="0 0 0 0 0.094118 0 0 0 0 0.094118 0 0 0 0 0.094118 0 0 0 1.000000 0"></feColorMatrix>
        </filter>
    </defs>
    <g id="Symbols" stroke="none" stroke-width="1" fill="none" fill-rule="evenodd">
        <g id="MinimalistLogodesignset_d4ca88fa-bbf0-4f3e-afef-e5b4e9a9f851" transform="translate(-267.000000, -522.000000)">
            <g id="Group" transform="translate(10.200000, 513.000000)">
                <g transform="translate(257.662248, 9.200000)">
                    <g filter="url(#filter-1)">
                        <g transform="translate(18.537752, 0.000000)">
                            <polygon id="Path" fill="#F1F2F2" fill-rule="nonzero" points="1.6 18.9 38.5 1.8 75.4 18.9 75.4 35.6 76.9 35.2 76.9 17.9 38.5 0 0 17.9 0 37.5 1.6 36.5"></polygon>
                            <g transform="translate(22.300000, 22.500000)" fill="#F1F2F2" fill-rule="nonzero" id="Path">
                                <polygon points="3.8 1.6 3.8 8.7 2.2 8.7 2.2 1.6 0 1.6 0 0.1 6 0.1 6 1.6"></polygon>
                                <polygon points="18 5 15.1 5 15.1 8.6 13.6 8.6 13.6 0 15.1 0 15.1 3.4 18 3.4 18 0 19.5 0 19.5 8.6 18 8.6"></polygon>
                                <polygon points="27.7 0.1 32.4 0.1 32.4 1.6 29.2 1.6 29.2 3.5 31.2 3.5 31.2 5 29.2 5 29.2 7.1 32.4 7.1 32.4 8.6 27.7 8.6 27.7 -1.13686838e-13"></polygon>
                            </g>
                        </g>
                    </g>
                    <g filter="url(#filter-2)">
                        <g transform="translate(0.000000, 34.873083)">
                            <path d="M19.0377522,20.9269173 C19.6377522,19.6269173 20.2377522,18.4269173 20.9377522,17.2269173 L21.7377522,15.8269173 C22.6377522,14.3269173 23.7377522,13.0269173 25.1377522,12.1269173 C26.8377522,10.9269173 27.0377522,13.2269173 27.7377522,14.1269173 C28.2377522,14.7269173 28.6377522,14.8269173 28.6377522,15.7269173 C28.6377522,16.3269173 28.6377522,16.8269173 28.4377522,17.5269173 C28.2377522,18.0269173 28.2377522,18.6269173 28.0377522,19.2269173 L27.8377522,20.0269173 L27.2377522,22.5269173 C27.0377522,23.0269173 26.7377522,23.9269173 26.8377522,24.3269173 C27.1377522,24.1269173 26.9377522,24.1269173 27.0377522,23.9269173 C27.2377522,23.2269173 27.7377522,21.7269173 28.1377522,20.6269173 C28.6377522,19.4269173 29.1377522,18.2269173 29.8377522,17.1269173 C30.1377522,16.7269173 31.4377522,13.9269173 32.4377522,14.4269173 C33.1377522,14.7269173 32.9377522,15.4269173 33.9377522,16.0269173 C34.7377522,16.5269173 35.0377522,16.6269173 35.0377522,17.7269173 C35.0377522,18.9269173 34.5377522,20.5269173 34.2377522,21.7269173 C34.0377522,22.9269173 33.7377522,24.7269173 33.6377522,25.9269173 C33.6377522,27.1269173 33.6377522,29.4269173 33.9377522,30.6269173 C34.3377522,31.8269173 34.6377522,32.8269173 35.1377522,33.7269173 C35.9377522,35.0269173 35.4377522,35.8269173 34.4377522,35.6269173 C33.9377522,35.6269173 33.6377522,35.4269173 33.0377522,35.3269173 C32.6377522,35.2269173 31.9377522,35.3269173 31.4377522,35.3269173 C30.9377522,35.3269173 30.6377522,35.1269173 30.3377522,34.6269173 C29.5377522,33.4269173 29.4377522,30.4269173 29.5377522,29.1269173 C29.5377522,28.6269173 29.5377522,27.7269173 29.5377522,27.0269173 C29.5377522,26.5269173 29.5377522,26.1269173 29.6377522,25.6269173 L29.8377522,24.2269173 C29.9377522,23.2269173 30.0377522,22.4269173 30.3377522,21.5269173 L30.9377522,19.6269173 C30.9377522,19.3269173 31.1377522,19.2269173 31.0377522,18.9269173 C30.7377522,19.0269173 30.4377522,19.4269173 30.3377522,19.8269173 L29.8377522,20.8269173 C29.5377522,21.5269173 29.2377522,22.0269173 28.9377522,22.9269173 C28.5377522,24.0269173 27.2377522,27.2269173 27.0377522,28.3269173 C26.7377522,29.5269173 26.4377522,30.6269173 26.2377522,31.7269173 C26.0377522,32.5269173 26.0377522,33.3269173 26.0377522,34.2269173 C26.0377522,36.8269173 25.4377522,36.5269173 23.5377522,35.9269173 C22.2377522,35.5269173 22.1377522,34.5269173 22.0377522,33.4269173 C21.9377522,32.3269173 22.0377522,31.4269173 22.0377522,30.4269173 C22.1377522,28.9269173 22.3377522,27.4269173 22.5377522,26.0269173 L22.7377522,24.6269173 C22.9377522,23.4269173 23.8377522,20.2269173 23.9377522,19.1269173 C23.9377522,18.8269173 24.7377522,16.6269173 24.3377522,16.3269173 C24.2377522,16.3269173 24.1377522,16.0269173 23.9377522,16.3269173 C21.9377522,18.2269173 20.4377522,21.1269173 19.3377522,23.5269173 C19.1377522,24.1269173 18.9377522,24.6269173 18.7377522,25.1269173 L18.1377522,26.8269173 C17.9377522,27.5269173 17.7377522,27.9269173 17.5377522,28.6269173 L17.0377522,30.3269173 C17.0377522,30.6269173 16.8377522,30.9269173 16.7377522,31.2269173 C16.4377522,32.7269173 15.7377522,36.2269173 15.7377522,37.8269173 C15.7377522,39.3269173 16.2377522,41.3269173 16.5377522,42.7269173 C16.9377522,44.4269173 16.0377522,44.7269173 15.3377522,44.2269173 C14.9377522,43.9269173 14.4377522,43.6269173 13.8377522,43.4269173 C12.2377522,42.7269173 11.4377522,43.4269173 11.0377522,40.7269173 C10.7377522,38.4269173 11.0377522,36.6269173 11.2377522,34.6269173 C11.4377522,32.5269173 12.5377522,27.2269173 13.0377522,25.3269173 L13.4377522,23.5269173 L13.8377522,21.7269173 C14.2377522,19.8269173 15.6377522,14.5269173 15.6377522,12.6269173 C15.6377522,7.52691735 8.23775219,14.6269173 7.03775219,17.3269173 L6.33775219,19.0269173 C5.93775219,19.9269173 5.73775219,20.7269173 5.53775219,21.6269173 C5.13775219,23.6269173 5.03775219,24.5269173 4.93775219,26.5269173 C4.93775219,28.5269173 5.33775219,31.2269173 6.63775219,33.1269173 C6.93775219,33.4269173 7.13775219,33.7269173 7.23775219,33.9269173 C7.33775219,34.3269173 7.23775219,34.7269173 5.93775219,34.5269173 C5.33775219,34.5269173 4.93775219,34.3269173 4.73775219,34.2269173 C3.43775219,33.9269173 2.83775219,34.2269173 1.83775219,33.2269173 C-0.962247812,30.5269173 0.037752188,23.9269173 0.937752188,21.2269173 C1.13775219,20.6269173 1.43775219,20.0269173 1.63775219,19.5269173 C3.23775219,16.3269173 3.43775219,16.1269173 5.43775219,13.4269173 C6.63775219,12.0269173 9.53775219,9.52691735 11.1377522,8.62691735 C11.9377522,8.22691735 12.3377522,8.02691735 13.2377522,8.22691735 C13.8377522,8.42691735 14.3377522,8.72691735 15.0377522,9.02691735 C17.5377522,9.92691735 20.9377522,8.32691735 19.4377522,15.8269173 L18.8377522,18.6269173 L18.5377522,19.5269173 C18.3377522,20.2269173 18.3377522,20.8269173 18.1377522,21.3269173 C18.0377522,21.8269173 17.7377522,22.6269173 17.7377522,23.1269173 C18.1377522,22.8269173 18.4377522,21.4269173 18.7377522,20.9269173 L19.0377522,20.9269173 Z" id="Path" fill="#A39369" fill-rule="nonzero"></path>
                            <path d="M37.9377522,20.0269173 C37.9377522,19.8269173 37.9377522,19.6269173 37.9377522,19.4269173 C38.2377522,18.1269173 38.4377522,16.5269173 38.5377522,16.1269173 C39.5377522,15.7269173 41.3377522,16.9269173 41.8377522,17.2269173 C42.3377522,17.7269173 42.0377522,18.6269173 42.0377522,19.1269173 C41.8377522,20.7269173 39.8377522,26.2269173 39.5377522,28.9269173 C39.5377522,30.3269173 39.5377522,31.3269173 40.4377522,31.2269173 C42.8377522,30.6269173 43.7377522,27.6269173 44.5377522,25.8269173 L44.8377522,25.2269173 C45.3377522,24.0269173 46.8377522,24.5269173 46.2377522,25.7269173 C45.3377522,28.2269173 44.6377522,29.8269173 44.0377522,30.6269173 C42.8377522,32.2269173 42.2377522,32.8269173 41.2377522,33.2269173 C38.0377522,34.6269173 35.8377522,32.2269173 36.1377522,29.0269173 C36.3377522,26.3269173 36.3377522,27.4269173 37.8377522,20.1269173 L37.9377522,20.0269173 Z M45.2377522,6.12691735 L45.2377522,6.12691735 C45.2377522,6.12691735 45.2377522,6.12691735 45.2377522,6.22691735 C45.0377522,6.72691735 44.4377522,7.72691735 44.2377522,8.12691735 C43.9377522,8.52691735 43.9377522,8.82691735 43.7377522,9.32691735 L43.4377522,10.4269173 C43.1377522,11.3269173 42.9377522,11.9269173 42.7377522,12.9269173 C42.5377522,14.3269173 41.0377522,12.9269173 40.8377522,12.7269173 C40.1377522,11.8269173 40.2377522,11.0269173 40.4377522,9.92691735 L40.6377522,8.62691735 C40.6377522,7.42691735 41.2377522,5.92691735 42.6377522,5.62691735 C44.0377522,5.32691735 44.1377522,5.62691735 45.3377522,5.82691735 L45.3377522,6.02691735 L45.2377522,6.12691735 Z" id="Shape" fill="#A39369" fill-rule="nonzero"></path>
                            <path d="M52.8377522,20.7269173 C52.8377522,20.7269173 53.3377522,19.3269173 53.3377522,19.0269173 C52.3377522,19.7269173 50.9377522,21.6269173 50.0377522,23.4269173 C49.6377522,24.3269173 49.3377522,25.3269173 49.0377522,26.5269173 L48.4377522,29.2269173 C48.2377522,30.0269173 48.1377522,31.2269173 47.2377522,31.5269173 C46.4377522,31.8269173 45.2377522,31.6269173 44.8377522,30.3269173 C44.6377522,29.6269173 44.5377522,28.7269173 44.6377522,27.3269173 C44.8377522,25.9269173 44.9377522,24.9269173 45.1377522,24.0269173 L45.7377522,21.5269173 L46.9377522,17.5269173 C46.9377522,16.3269173 45.8377522,17.0269173 46.0377522,15.9269173 C46.0377522,15.6269173 46.4377522,15.3269173 47.1377522,15.0269173 C48.5377522,14.6269173 49.7377522,14.9269173 50.3377522,15.3269173 C50.9377522,15.7269173 51.0377522,16.4269173 50.8377522,17.2269173 L50.1377522,19.4269173 C49.8377522,20.1269173 49.5377522,20.9269173 49.1377522,22.0269173 C48.7377522,23.1269173 48.5377522,23.9269173 48.4377522,24.6269173 C48.4377522,25.1269173 50.3377522,20.3269173 50.8377522,19.8269173 C51.8377522,18.6269173 52.9377522,17.4269173 53.9377522,16.2269173 C54.6377522,15.6269173 56.0377522,13.8269173 56.9377522,13.6269173 C58.6377522,13.2269173 60.3377522,15.0269173 59.6377522,16.4269173 L58.1377522,17.6269173 C57.4377522,18.4269173 57.1377522,18.8269173 56.6377522,19.8269173 C56.3377522,20.4269173 55.6377522,22.0269173 55.2377522,23.5269173 C54.8377522,26.3269173 56.1377522,28.0269173 57.2377522,27.6269173 C59.6377522,27.0269173 60.5377522,24.0269173 61.3377522,22.2269173 L61.6377522,21.6269173 C62.1377522,20.4269173 63.5377522,20.9269173 63.0377522,22.1269173 C62.1377522,24.6269173 61.3377522,26.3269173 60.7377522,27.0269173 C59.5377522,28.6269173 58.9377522,29.2269173 57.9377522,29.6269173 C54.7377522,31.0269173 51.6377522,28.2269173 52.1377522,24.4269173 C52.1377522,23.8269173 52.4377522,22.6269173 52.9377522,20.8269173 L52.8377522,20.7269173 Z" id="Path" fill="#A39369" fill-rule="nonzero"></path>
                            <path d="M63.2377522,14.5269173 C63.2377522,14.3269173 63.2377522,14.1269173 63.2377522,13.9269173 C63.5377522,12.6269173 63.7377522,11.0269173 63.8377522,10.6269173 C64.8377522,10.2269173 66.6377522,11.4269173 67.1377522,11.7269173 C67.6377522,12.2269173 67.3377522,13.1269173 67.3377522,13.6269173 C67.1377522,15.2269173 65.1377522,20.7269173 64.8377522,23.4269173 C64.8377522,24.8269173 64.8377522,25.8269173 65.7377522,25.7269173 C68.1377522,25.1269173 69.0377522,22.2269173 69.8377522,20.3269173 L70.1377522,19.7269173 C70.6377522,18.5269173 72.1377522,19.0269173 71.5377522,20.2269173 C70.6377522,22.7269173 69.9377522,24.3269173 69.3377522,25.1269173 C68.1377522,26.7269173 67.5377522,27.3269173 66.5377522,27.7269173 C63.3377522,29.1269173 61.1377522,26.7269173 61.4377522,23.5269173 C61.6377522,20.8269173 61.6377522,21.9269173 63.1377522,14.6269173 L63.2377522,14.5269173 Z M70.5377522,0.626917348 L70.5377522,0.626917348 C70.5377522,0.626917348 70.5377522,0.626917348 70.5377522,0.726917348 C70.3377522,1.22691735 69.7377522,2.22691735 69.5377522,2.62691735 C69.2377522,3.02691735 69.2377522,3.32691735 69.0377522,3.82691735 L68.7377522,4.92691735 C68.4377522,5.82691735 68.2377522,6.42691735 68.0377522,7.42691735 C67.8377522,8.82691735 66.3377522,7.42691735 66.1377522,7.22691735 C65.4377522,6.32691735 65.5377522,5.52691735 65.7377522,4.42691735 L65.9377522,3.12691735 C65.9377522,1.92691735 66.5377522,0.426917348 67.9377522,0.126917348 C69.3377522,-0.173082652 69.4377522,0.126917348 70.6377522,0.326917348 L70.6377522,0.526917348 L70.5377522,0.626917348 Z" id="Shape" fill="#A39369" fill-rule="nonzero"></path>
                            <path d="M89.2377522,20.7269173 C91.6377522,20.1269173 92.5377522,17.1269173 93.3377522,15.3269173 L93.6377522,14.7269173 C94.1377522,13.5269173 95.6377522,14.0269173 95.0377522,15.2269173 C94.1377522,17.7269173 93.4377522,19.3269173 92.8377522,20.1269173 C91.6377522,21.7269173 91.0377522,22.3269173 90.0377522,22.7269173 C86.4377522,24.2269173 84.5377522,21.3269173 84.4377522,18.5269173 C84.6377522,15.6269173 84.8377522,14.8269173 85.1377522,13.7269173 C85.3377522,13.2269173 85.7377522,12.3269173 85.7377522,11.9269173 C85.2377522,12.0269173 83.8377522,14.4269173 83.4377522,15.0269173 C83.1377522,15.3269173 82.9377522,15.6269173 82.7377522,16.1269173 C82.4377522,16.7269173 81.9377522,17.9269173 81.2377522,20.1269173 C80.5377522,22.4269173 80.2377522,23.6269173 80.1377522,24.3269173 L79.5377522,24.3269173 C78.5377522,24.6269173 77.2377522,24.1269173 77.1377522,23.2269173 C77.0377522,22.7269173 77.0377522,21.8269173 77.4377522,19.9269173 C77.8377522,18.0269173 78.0377522,17.1269173 78.0377522,16.5269173 C78.2377522,15.8269173 78.8377522,14.5269173 78.8377522,13.9269173 C78.2377522,14.0269173 77.3377522,15.5269173 76.3377522,17.2269173 C75.5377522,18.7269173 74.7377522,20.3269173 74.5377522,21.5269173 L73.8377522,23.8269173 C73.2377522,25.6269173 72.0377522,26.3269173 70.7377522,25.6269173 C70.1377522,25.3269173 69.9377522,24.4269173 70.0377522,22.9269173 L70.4377522,20.0269173 C70.5377522,19.0269173 70.9377522,17.4269173 71.3377522,15.9269173 C71.6377522,15.1269173 71.7377522,14.6269173 71.8377522,14.2269173 L72.2377522,12.1269173 C72.2377522,10.8269173 70.9377522,11.7269173 71.3377522,10.6269173 C71.8377522,9.22691735 74.7377522,9.02691735 75.5377522,9.72691735 C76.0377522,10.1269173 76.1377522,10.8269173 75.8377522,12.0269173 C75.2377522,14.4269173 74.6377522,15.9269173 74.3377522,16.9269173 C74.3377522,17.3269173 74.1377522,17.5269173 74.3377522,17.8269173 C74.9377522,16.2269173 77.8377522,10.1269173 80.8377522,9.52691735 C81.4377522,9.42691735 82.0377522,9.52691735 82.5377522,9.62691735 C83.3377522,10.0269173 82.9377522,10.3269173 82.7377522,10.8269173 C82.3377522,11.4269173 81.4377522,13.8269173 81.7377522,14.7269173 L81.9377522,14.5269173 L82.9377522,12.9269173 C84.0377522,11.1269173 85.1377522,10.0269173 86.1377522,8.82691735 C86.7377522,8.12691735 88.2377522,6.32691735 89.0377522,6.12691735 C89.9377522,5.92691735 90.7377522,6.22691735 91.3377522,6.92691735 C91.6377522,7.22691735 91.5377522,7.92691735 90.9377522,8.92691735 C90.3377522,10.0269173 89.9377522,10.9269173 89.3377522,11.8269173 C87.4377522,14.7269173 86.8377522,17.1269173 87.4377522,19.0269173 C87.9377522,20.6269173 88.5377522,20.6269173 89.2377522,20.5269173 L89.2377522,20.7269173 Z" id="Path" fill="#A39369" fill-rule="nonzero"></path>
                            <path d="M98.1377522,20.1269173 C97.8377522,20.5269173 97.5377522,20.8269173 97.3377522,20.9269173 C96.8377522,21.0269173 96.3377522,20.5269173 95.3377522,20.4269173 C94.4377522,20.3269173 94.1377522,20.6269173 93.6377522,19.7269173 C93.5377522,19.4269173 93.5377522,18.9269173 93.6377522,18.3269173 L93.6377522,16.5269173 C93.7377522,16.0269173 93.7377522,15.3269173 93.9377522,14.2269173 C94.1377522,12.0269173 94.7377522,10.2269173 95.6377522,8.32691735 C96.0377522,7.42691735 96.6377522,6.52691735 97.2377522,5.62691735 C98.5377522,3.92691735 99.6377522,4.12691735 100.537752,4.12691735 C101.737752,4.12691735 103.137752,4.72691735 102.937752,5.32691735 C103.337752,5.02691735 103.437752,4.02691735 104.137752,3.32691735 C104.537752,2.72691735 105.037752,2.62691735 106.137752,2.82691735 C107.137752,3.12691735 108.037752,2.92691735 107.937752,3.62691735 C107.837752,3.82691735 107.737752,3.92691735 107.437752,4.12691735 C107.237752,4.32691735 107.037752,4.42691735 107.037752,4.62691735 L105.637752,7.92691735 C104.737752,9.82691735 104.237752,11.7269173 104.037752,13.4269173 C103.637752,16.7269173 104.037752,17.5269173 104.937752,17.5269173 C107.337752,16.9269173 108.237752,13.9269173 109.037752,12.1269173 L109.337752,11.5269173 C109.837752,10.3269173 111.237752,10.8269173 110.737752,12.0269173 C109.837752,14.5269173 109.137752,16.1269173 108.537752,16.9269173 C107.337752,18.5269173 106.737752,19.1269173 105.737752,19.5269173 C102.637752,20.9269173 100.737752,17.8269173 101.037752,14.3269173 C99.5377522,18.0269173 98.6377522,20.0269173 98.3377522,20.3269173 L98.1377522,20.1269173 Z M101.837752,6.62691735 C99.5377522,7.42691735 97.9377522,10.2269173 97.1377522,13.9269173 C96.7377522,15.7269173 96.5377522,16.8269173 96.5377522,17.1269173 C96.5377522,17.4269173 96.5377522,17.6269173 96.6377522,17.7269173 C96.8377522,18.0269173 97.3377522,17.2269173 98.2377522,15.4269173 C99.0377522,13.6269173 99.6377522,12.5269173 99.9377522,12.0269173 C100.637752,10.5269173 101.437752,8.72691735 102.137752,6.72691735 L101.837752,6.72691735 L101.837752,6.62691735 Z" id="Shape" fill="#A39369" fill-rule="nonzero"></path>
                        </g>
                    </g>
                </g>
            </g>
        </g>
    </g>
</svg>