<?xml version="1.0" encoding="UTF-8"?>
<svg width="119px" height="50px" viewBox="0 0 119 50" version="1.1" xmlns="http://www.w3.org/2000/svg" xmlns:xlink="http://www.w3.org/1999/xlink">
    <title>Group@3x</title>
    <defs>
        <filter id="filter-1">
            <feColorMatrix in="SourceGraphic" type="matrix" values="0 0 0 0 0.000000 0 0 0 0 0.000000 0 0 0 0 0.000000 0 0 0 1.000000 0"></feColorMatrix>
        </filter>
        <filter id="filter-2">
            <feColorMatrix in="SourceGraphic" type="matrix" values="0 0 0 0 0.000000 0 0 0 0 0.000000 0 0 0 0 0.000000 0 0 0 1.000000 0"></feColorMatrix>
        </filter>
        <filter id="filter-3">
            <feColorMatrix in="SourceGraphic" type="matrix" values="0 0 0 0 0.000000 0 0 0 0 0.000000 0 0 0 0 0.000000 0 0 0 1.000000 0"></feColorMatrix>
        </filter>
        <filter id="filter-4">
            <feColorMatrix in="SourceGraphic" type="matrix" values="0 0 0 0 0.094034 0 0 0 0 0.094034 0 0 0 0 0.094034 0 0 0 1.000000 0"></feColorMatrix>
        </filter>
    </defs>
    <g id="Symbols" stroke="none" stroke-width="1" fill="none" fill-rule="evenodd">
        <g id="MinimalistLogodesignset_d4ca88fa-bbf0-4f3e-afef-e5b4e9a9f851" transform="translate(-23.000000, -537.000000)">
            <g id="Group" transform="translate(10.200000, 513.000000)">
                <g transform="translate(12.800000, 24.100000)">
                    <g transform="translate(-0.000000, 0.000000)">
                        <g filter="url(#filter-1)">
                            <g transform="translate(-0.000000, 44.500000)">
                                <rect id="Rectangle" fill="#F1F2F2" fill-rule="nonzero" x="1.42108547e-14" y="0" width="24" height="1.5"></rect>
                                <rect id="Rectangle" fill="#F1F2F2" fill-rule="nonzero" x="94.4" y="0" width="24" height="1.5"></rect>
                            </g>
                        </g>
                        <g filter="url(#filter-2)">
                            <g transform="translate(-0.000000, 0.000000)">
                                <rect id="Rectangle" fill="#F1F2F2" fill-rule="nonzero" x="1.42108547e-14" y="3.4" width="32" height="1.5"></rect>
                                <rect id="Rectangle" fill="#F1F2F2" fill-rule="nonzero" x="86.4" y="3.4" width="32" height="1.5"></rect>
                                <g transform="translate(40.800000, 0.000000)" fill="#F1F2F2" fill-rule="nonzero" id="Path">
                                    <polygon points="2.5 1.7 0 1.7 0 0 6.8 0 6.8 1.7 4.3 1.7 4.3 8.2 2.5 8.2"></polygon>
                                    <polygon points="15 0.1 16.8 0.1 16.8 3.3 20.1 3.3 20.1 0.1 21.9 0.1 21.9 8.3 20.1 8.3 20.1 5 16.8 5 16.8 8.3 15 8.3"></polygon>
                                    <polygon points="30.6 0.1 36.8 0.1 36.8 1.7 32.4 1.7 32.4 3.4 36.3 3.4 36.3 5 32.4 5 32.4 6.7 36.9 6.7 36.9 8.3 30.6 8.3 30.6 0.1"></polygon>
                                </g>
                            </g>
                        </g>
                        <g filter="url(#filter-3)">
                            <g transform="translate(34.700000, 40.900000)">
                                <polygon id="Path" fill="#F1F2F2" fill-rule="nonzero" points="0 8.5 0 0.2 1.8 0.2 1.8 7 5.3 7 5.3 8.6 0 8.6"></polygon>
                                <path d="M11,4.3 C11,1.8 12.8,0 15.3,0 C17.8,0 19.7,1.8 19.7,4.3 C19.7,6.8 17.9,8.6 15.3,8.6 C12.7,8.6 11,6.8 11,4.3 Z M17.9,4.3 C17.9,2.7 16.9,1.6 15.4,1.6 C13.9,1.6 12.9,2.8 12.9,4.3 C12.9,5.8 13.9,7 15.4,7 C16.9,7 17.9,5.8 17.9,4.3 Z" id="Shape" fill="#F1F2F2" fill-rule="nonzero"></path>
                                <path d="M25.9,4.3 C25.9,1.7 27.9,0 30.3,0 C32.7,0 33.1,0.9 33.7,1.9 L32.2,2.7 C31.8,2.1 31.1,1.6 30.2,1.6 C28.7,1.6 27.6,2.8 27.6,4.3 C27.6,5.8 28.7,7 30.2,7 C31.7,7 31.6,6.7 32,6.4 L32,5.4 L29.8,5.4 L29.8,3.9 L33.8,3.9 L33.8,7.1 C33,8.1 31.8,8.7 30.3,8.7 C27.9,8.7 25.9,7 25.9,4.4 L25.9,4.3 Z" id="Path" fill="#F1F2F2" fill-rule="nonzero"></path>
                                <path d="M40.1,4.3 C40.1,1.8 41.9,0 44.4,0 C46.9,0 48.8,1.8 48.8,4.3 C48.8,6.8 47,8.6 44.4,8.6 C41.8,8.6 40.1,6.8 40.1,4.3 Z M47,4.3 C47,2.7 46,1.6 44.5,1.6 C43,1.6 42,2.8 42,4.3 C42,5.8 43,7 44.5,7 C46,7 47,5.8 47,4.3 Z" id="Shape" fill="#F1F2F2" fill-rule="nonzero"></path>
                            </g>
                        </g>
                    </g>
                    <g filter="url(#filter-4)">
                        <g transform="translate(1.300000, 15.050000)">
                            <path d="M18.5,17.55 C18.5,17.55 18.5,17.75 18.3,17.75 L15.5,17.75 C15.3,17.75 15.3,17.75 15.3,17.55 L15.3,8.15 L10.9,16.95 C10.9,16.95 10.8,17.05 10.7,17.05 L8.1,17.05 C8.1,17.05 7.9,17.05 7.9,16.95 L3.2,7.95 L3.2,17.55 C3.2,17.55 3.2,17.75 3,17.75 L0.2,17.75 C0.1,17.75 -1.42108547e-14,17.75 -1.42108547e-14,17.55 L-1.42108547e-14,0.75 C-1.42108547e-14,0.75 -1.42108547e-14,0.55 0.2,0.55 L3.1,0.55 C3.1,0.55 3.3,0.55 3.3,0.65 L9.5,13.25 L15.4,0.65 C15.4,0.65 15.5,0.55 15.6,0.55 L18.4,0.55 C18.5,0.55 18.6,0.55 18.6,0.75 L18.6,17.55 L18.5,17.55 Z" id="Path" fill="#A39369" fill-rule="nonzero"></path>
                            <path d="M31.3,3.55 L31.3,14.85 L33,14.85 C33.1,14.85 33.2,14.85 33.2,15.05 L33.2,17.65 C33.2,17.65 33.2,17.85 33,17.85 L26.3,17.85 C26.2,17.85 26.1,17.85 26.1,17.65 L26.1,15.05 C26.1,15.05 26.1,14.85 26.3,14.85 L28,14.85 L28,3.55 L26.4,3.55 C26.3,3.55 26.2,3.55 26.2,3.35 L26.2,0.75 C26.2,0.75 26.2,0.55 26.4,0.55 L33,0.55 C33.1,0.55 33.2,0.55 33.2,0.75 L33.2,3.35 C33.2,3.35 33.1,3.55 33,3.55 L31.4,3.55 L31.3,3.55 Z" id="Path" fill="#A39369" fill-rule="nonzero"></path>
                            <path d="M55.2,17.55 C55.2,17.55 55.2,17.75 55,17.75 L52.2,17.75 C52.2,17.75 52,17.75 52,17.75 L44.1,6.45 L44.1,17.65 C44.1,17.65 44.1,17.85 43.9,17.85 L41.1,17.85 C41,17.85 40.9,17.85 40.9,17.65 L40.9,0.85 C40.9,0.85 40.9,0.65 41.1,0.65 L43.9,0.65 C43.9,0.65 44.1,0.65 44.1,0.65 L52,11.95 L52,0.75 C52,0.75 52,0.55 52.2,0.55 L55,0.55 C55.1,0.55 55.2,0.55 55.2,0.75 L55.2,17.55 Z" id="Path" fill="#A39369" fill-rule="nonzero"></path>
                            <path d="M67.9,3.55 L67.9,14.85 L69.6,14.85 C69.7,14.85 69.8,14.85 69.8,15.05 L69.8,17.65 C69.8,17.65 69.8,17.85 69.6,17.85 L62.8,17.85 C62.7,17.85 62.6,17.85 62.6,17.65 L62.6,15.05 C62.6,15.05 62.7,14.85 62.8,14.85 L64.5,14.85 L64.5,3.55 L62.9,3.55 C62.8,3.55 62.7,3.55 62.7,3.35 L62.7,0.75 C62.7,0.75 62.7,0.55 62.9,0.55 L69.5,0.55 C69.6,0.55 69.7,0.55 69.7,0.75 L69.7,3.35 C69.7,3.35 69.6,3.55 69.5,3.55 L67.9,3.55 L67.9,3.55 Z" id="Path" fill="#A39369" fill-rule="nonzero"></path>
                            <path d="M96,17.55 C96,17.55 96,17.75 95.8,17.75 L93,17.75 C92.9,17.75 92.8,17.75 92.8,17.55 L92.8,8.15 L88.4,16.95 C88.4,16.95 88.3,17.05 88.2,17.05 L85.5,17.05 C85.5,17.05 85.3,17.05 85.3,16.95 L80.6,7.95 L80.6,17.55 C80.6,17.55 80.6,17.75 80.4,17.75 L77.6,17.75 C77.5,17.75 77.4,17.75 77.4,17.55 L77.4,0.75 C77.4,0.75 77.4,0.55 77.6,0.55 L80.5,0.55 C80.5,0.55 80.7,0.55 80.7,0.65 L86.9,13.25 L92.8,0.65 C92.8,0.65 92.9,0.55 93,0.55 L95.8,0.55 C95.9,0.55 96,0.55 96,0.75 L96,17.55 L96,17.55 Z" id="Path" fill="#A39369" fill-rule="nonzero"></path>
                            <path d="M112.7,15.85 L107.1,15.85 L106.4,17.65 C106.4,17.65 106.3,17.75 106.2,17.75 L103.2,17.75 C103,17.75 102.9,17.65 103,17.45 L109.7,0.15 C109.7,-0.05 110.1,-0.05 110.1,0.15 L116.8,17.45 C116.8,17.55 116.8,17.75 116.6,17.75 L113.6,17.75 C113.6,17.75 113.4,17.75 113.4,17.65 L112.7,15.85 L112.7,15.85 Z M108.2,12.95 L111.7,12.95 L110,7.75 L108.3,12.95 L108.2,12.95 Z" id="Shape" fill="#A39369" fill-rule="nonzero"></path>
                        </g>
                    </g>
                </g>
            </g>
        </g>
    </g>
</svg>