<?xml version="1.0" encoding="UTF-8"?>
<svg width="114px" height="98px" viewBox="0 0 114 98" version="1.1" xmlns="http://www.w3.org/2000/svg" xmlns:xlink="http://www.w3.org/1999/xlink">
    <title>Group@3x</title>
    <defs>
        <filter id="filter-1">
            <feColorMatrix in="SourceGraphic" type="matrix" values="0 0 0 0 0.200000 0 0 0 0 0.200000 0 0 0 0 0.200000 0 0 0 1.000000 0"></feColorMatrix>
        </filter>
        <filter id="filter-2">
            <feColorMatrix in="SourceGraphic" type="matrix" values="0 0 0 0 0.000000 0 0 0 0 0.000000 0 0 0 0 0.000000 0 0 0 1.000000 0"></feColorMatrix>
        </filter>
        <filter id="filter-3">
            <feColorMatrix in="SourceGraphic" type="matrix" values="0 0 0 0 0.200000 0 0 0 0 0.200000 0 0 0 0 0.200000 0 0 0 1.000000 0"></feColorMatrix>
        </filter>
    </defs>
    <g id="Symbols" stroke="none" stroke-width="1" fill="none" fill-rule="evenodd">
        <g id="MinimalistLogodesignset_d4ca88fa-bbf0-4f3e-afef-e5b4e9a9f851" transform="translate(-505.000000, -513.000000)">
            <g id="Group" transform="translate(10.200000, 513.000000)">
                <g transform="translate(495.700000, 0.000000)">
                    <g transform="translate(0.000000, 0.000000)">
                        <g filter="url(#filter-1)">
                            <g transform="translate(45.400000, 63.600000)">
                                <polygon id="Path" fill="#F1F2F2" fill-rule="nonzero" points="1.3 4.6 1.3 0.9 0 0.9 0 -1.13686838e-13 3.7 -1.13686838e-13 3.7 0.9 2.4 0.9 2.4 4.6 1.4 4.6"></polygon>
                                <polygon id="Path" fill="#F1F2F2" fill-rule="nonzero" points="5.6 4.6 5.6 -1.13686838e-13 8.8 -1.13686838e-13 8.8 0.9 6.5 0.9 6.5 1.9 8.7 1.9 8.7 2.8 6.5 2.8 6.5 3.8 8.8 3.8 8.8 4.7 5.6 4.7"></polygon>
                                <path d="M14.2,4.6 L13.9,3.8 L11.9,3.8 L11.6,4.6 L10.5,4.6 L12.3,-1.13686838e-13 L13.5,-1.13686838e-13 L15.3,4.6 L14.2,4.6 Z M12.9,1 L12.2,3 L13.6,3 L12.9,1 L12.9,1 Z" id="Shape" fill="#F1F2F2" fill-rule="nonzero"></path>
                                <polygon id="Path" fill="#F1F2F2" fill-rule="nonzero" points="21.2 4.6 21.2 1.4 19.9 4.6 19.5 4.6 18.2 1.4 18.2 4.6 17.2 4.6 17.2 -1.13686838e-13 18.6 -1.13686838e-13 19.7 2.8 20.8 -1.13686838e-13 22.2 -1.13686838e-13 22.2 4.6 21.2 4.6"></polygon>
                            </g>
                        </g>
                        <polygon id="Path" fill="#000000" fill-rule="nonzero" points="3.6 2.1 109.3 2.1 90.3 35 92.7 35 112.9 0 1.13686838e-13 0 20.2 35 22.6 35"></polygon>
                        <polygon id="Path" fill="#000000" fill-rule="nonzero" points="56.4 93.6 36.5 59 34.1 59 56.4 97.8 78.8 59 76.4 59"></polygon>
                        <g filter="url(#filter-2)">
                            <g transform="translate(29.200000, 8.400000)">
                                <path d="M40.4,22.4 L14,22.4 L14,9.7 L27.2,2.1 L40.4,9.7 L40.4,22.4 L40.4,22.4 Z M16.1,20.3 L38.3,20.3 L38.3,10.9 L27.2,4.5 L16.1,10.9 L16.1,20.3 Z" id="Shape" fill="#A39369" fill-rule="nonzero"></path>
                                <polygon id="Path" fill="#A39369" fill-rule="nonzero" points="12.4 20.3 1.13686838e-13 20.3 1.13686838e-13 7.6 13.2 1.13686838e-13 19.4 3.6 18.4 5.4 13.2 2.4 2 8.8 2 18.3 12.4 18.3"></polygon>
                                <polygon id="Path" fill="#A39369" fill-rule="nonzero" points="54.5 20.3 42.1 20.3 42.1 18.3 52.5 18.3 52.5 8.8 41.3 2.4 36.1 5.4 35.1 3.6 41.3 1.13686838e-13 54.5 7.6"></polygon>
                            </g>
                        </g>
                    </g>
                    <g filter="url(#filter-3)">
                        <g transform="translate(8.700000, 40.500000)">
                            <polygon id="Path" fill="#F1F2F2" fill-rule="nonzero" points="2.3 15.3 0 15.3 0 0.2 3.3 0.2 5.4 11.1 7.4 0.2 10.5 0.2 10.5 15.3 8.2 15.3 8.2 5.8 6.2 15.3 4.4 15.3 2.2 5.8 2.2 15.3"></polygon>
                            <polygon id="Path" fill="#F1F2F2" fill-rule="nonzero" points="18.3 15.3 16 15.3 16 0.2 18.3 0.2"></polygon>
                            <polygon id="Path" fill="#F1F2F2" fill-rule="nonzero" points="26.3 0.2 29.3 10.4 29.3 0.2 31.6 0.2 31.6 15.3 29.1 15.3 26 5.6 26 15.3 23.7 15.3 23.7 0.2"></polygon>
                            <polygon id="Path" fill="#F1F2F2" fill-rule="nonzero" points="39.3 15.3 37 15.3 37 0.2 39.3 0.2"></polygon>
                            <polygon id="Path" fill="#F1F2F2" fill-rule="nonzero" points="47.1 15.3 44.8 15.3 44.8 0.2 48.1 0.2 50.2 11.1 52.2 0.2 55.3 0.2 55.3 15.3 53 15.3 53 5.8 51 15.3 49.2 15.3 47 5.8 47 15.3"></polygon>
                            <path d="M63.6,11.8 L63,15.3 L60.6,15.3 L63.2,0.2 L66.3,0.2 L68.8,15.3 L66.4,15.3 L65.9,11.8 L63.5,11.8 L63.6,11.8 Z M64.8,3.6 L64,9.6 L65.7,9.6 L64.9,3.6 L64.8,3.6 Z" id="Shape" fill="#F1F2F2" fill-rule="nonzero"></path>
                            <polygon id="Path" fill="#F1F2F2" fill-rule="nonzero" points="80.5 15.3 74.3 15.3 74.3 0.2 76.6 0.2 76.6 13.1 80.5 13.1 80.5 15.4"></polygon>
                            <polygon id="Path" fill="#F1F2F2" fill-rule="nonzero" points="87.7 15.3 85.4 15.3 85.4 0.2 87.7 0.2"></polygon>
                            <path d="M100.6,11.5 C100.6,12.6 100.3,13.5 99.8,14.2 C99.4,14.7 98.9,15.1 98.2,15.3 C97.8,15.4 97.4,15.5 96.9,15.5 C96,15.5 95.3,15.3 94.7,14.8 C94.2,14.4 93.8,13.9 93.5,13.3 C93.2,12.7 93,12 93,11.2 L95.2,11 C95.2,11.9 95.5,12.5 95.9,12.9 C96.2,13.2 96.5,13.3 96.8,13.3 C97.3,13.3 97.7,13 98,12.6 C98.2,12.4 98.2,12 98.2,11.6 C98.2,11 97.9,10.3 97.3,9.7 C96.8,9.3 96.2,8.6 95.3,7.8 C94.5,7.1 94,6.4 93.7,5.8 C93.4,5.1 93.2,4.4 93.2,3.7 C93.2,2.3 93.7,1.3 94.6,0.6 C95.2,0.2 95.9,0 96.7,0 C97.5,0 98.2,0.2 98.8,0.5 C99.3,0.8 99.6,1.2 99.9,1.7 C100.2,2.2 100.3,2.8 100.4,3.5 L98.2,3.9 C98.2,3.3 98,2.8 97.7,2.5 C97.5,2.3 97.2,2.1 96.8,2.1 C96.4,2.1 96.1,2.3 95.8,2.7 C95.6,3 95.5,3.4 95.5,3.8 C95.5,4.5 95.8,5.2 96.4,5.9 C96.6,6.2 97,6.5 97.4,6.9 C97.9,7.3 98.3,7.7 98.4,7.8 C99,8.4 99.4,8.9 99.7,9.5 C99.8,9.8 100,10 100,10.2 C100.2,10.7 100.3,11.2 100.3,11.7 L100.6,11.5 Z" id="Path" fill="#F1F2F2" fill-rule="nonzero"></path>
                        </g>
                    </g>
                </g>
            </g>
        </g>
    </g>
</svg>