<?xml version="1.0" encoding="UTF-8"?>
<svg width="94px" height="57px" viewBox="0 0 94 57" version="1.1" xmlns="http://www.w3.org/2000/svg" xmlns:xlink="http://www.w3.org/1999/xlink">
    <title>Group@3x</title>
    <defs>
        <filter id="filter-1">
            <feColorMatrix in="SourceGraphic" type="matrix" values="0 0 0 0 0.200000 0 0 0 0 0.200000 0 0 0 0 0.200000 0 0 0 1.000000 0"></feColorMatrix>
        </filter>
        <filter id="filter-2">
            <feColorMatrix in="SourceGraphic" type="matrix" values="0 0 0 0 0.000000 0 0 0 0 0.000000 0 0 0 0 0.000000 0 0 0 1.000000 0"></feColorMatrix>
        </filter>
    </defs>
    <g id="Symbols" stroke="none" stroke-width="1" fill="none" fill-rule="evenodd">
        <g id="MinimalistLogodesignset_d4ca88fa-bbf0-4f3e-afef-e5b4e9a9f851" transform="translate(-1248.000000, -1078.000000)">
            <g id="Group" transform="translate(10.200000, 513.000000)">
                <g transform="translate(1238.000000, 565.700000)">
                    <g filter="url(#filter-1)">
                        <g transform="translate(0.000000, 26.600000)">
                            <polygon id="Path" fill="#F1F2F2" fill-rule="nonzero" points="0 29 0 0.1 9.6 0.1 9.6 3.6 3.9 3.6 3.9 12.4 9 12.4 9 15.9 3.9 15.9 3.9 25.5 9.6 25.5 9.6 29 0 29"></polygon>
                            <polygon id="Path" fill="#F1F2F2" fill-rule="nonzero" points="23.3 29 19.6 29 17.4 18 17.4 18 14.8 29 11.2 29 14.9 14.4 11.5 0.1 15.3 0.1 17.5 10.8 17.5 10.8 19.9 0.1 23.5 0.1 20 14.4 23.4 29"></polygon>
                            <path d="M25.7,0.1 L32.7,0.1 C35.8,0.1 37.4,1.7 37.4,5 L37.4,13.6 C37.4,16.9 35.9,18.5 32.8,18.5 L29.6,18.5 L29.6,29 L25.7,29 L25.7,0.1 Z M29.6,15 L32.1,15 C33.1,15 33.6,14.4 33.6,13.3 L33.6,5.3 C33.6,4.2 33,3.6 31.9,3.6 L29.6,3.6 L29.6,15 Z" id="Shape" fill="#F1F2F2" fill-rule="nonzero"></path>
                            <path d="M40.5,0.1 L48.1,0.1 C51.1,0.1 52.5,1.7 52.5,5 L52.5,12.1 C52.5,14.6 51.7,16.2 50.2,16.9 L52.9,28.9 L49.2,28.9 L46.7,17.2 L44.4,17.2 L44.4,28.9 L40.5,28.9 L40.5,0 L40.5,0.1 Z M44.4,14 L46.9,14 C48,14 48.6,13.3 48.6,11.9 L48.6,5.7 C48.6,4.3 48,3.6 46.9,3.6 L44.4,3.6 L44.4,14 L44.4,14 Z" id="Shape" fill="#F1F2F2" fill-rule="nonzero"></path>
                            <polygon id="Path" fill="#F1F2F2" fill-rule="nonzero" points="55.7 29 55.7 0.1 65.3 0.1 65.3 3.6 59.6 3.6 59.6 12.4 64.7 12.4 64.7 15.9 59.6 15.9 59.6 25.5 65.3 25.5 65.3 29 55.7 29"></polygon>
                            <path d="M75.4,7.9 L75.4,5.4 C75.4,4.2 74.8,3.7 73.7,3.7 L73.1,3.7 C72,3.7 71.4,4.3 71.4,5.4 L71.4,10.2 C71.4,10.7 71.5,11.1 71.7,11.3 C71.9,11.5 72.3,11.7 72.7,12 L76.4,14 C77.2,14.5 77.8,14.8 78.1,15.1 C78.4,15.4 78.7,15.7 78.9,16 C79.1,16.4 79.2,17.1 79.2,18.1 L79.2,24.3 C79.2,27.5 77.6,29.2 74.5,29.2 L72.1,29.2 C69,29.2 67.5,27.4 67.5,23.9 L67.5,22.5 L71.4,22.5 L71.4,24.1 C71.4,25.2 72,25.8 73.1,25.8 L73.8,25.8 C74.8,25.8 75.3,25.2 75.3,24.1 L75.3,19.2 C75.3,18.7 75.2,18.3 75,18.1 C74.8,17.9 74.4,17.7 74,17.4 L70.3,15.3 C69.5,14.9 68.9,14.5 68.5,14.2 C68.1,13.9 67.9,13.5 67.7,13.1 C67.5,12.6 67.5,12 67.5,11.3 L67.5,5.4 C67.5,2.1 69,0.5 72.1,0.5 L74.5,0.5 C77.6,0.5 79.1,2.1 79.1,5.4 L79.1,8.2 L75.2,8.2 L75.4,7.9 Z" id="Path" fill="#F1F2F2" fill-rule="nonzero"></path>
                            <path d="M89.9,7.9 L89.9,5.4 C89.9,4.2 89.3,3.7 88.2,3.7 L87.6,3.7 C86.5,3.7 85.9,4.3 85.9,5.4 L85.9,10.2 C85.9,10.7 86,11.1 86.2,11.3 C86.4,11.5 86.8,11.7 87.2,12 L90.9,14 C91.7,14.5 92.3,14.8 92.6,15.1 C92.9,15.4 93.2,15.7 93.4,16 C93.6,16.4 93.7,17.1 93.7,18.1 L93.7,24.3 C93.7,27.5 92.1,29.2 89,29.2 L86.6,29.2 C83.5,29.2 82,27.4 82,23.9 L82,22.5 L85.9,22.5 L85.9,24.1 C85.9,25.2 86.5,25.8 87.6,25.8 L88.3,25.8 C89.3,25.8 89.8,25.2 89.8,24.1 L89.8,19.2 C89.8,18.7 89.7,18.3 89.5,18.1 C89.3,17.9 88.9,17.7 88.5,17.4 L84.8,15.3 C84,14.9 83.4,14.5 83,14.2 C82.6,13.9 82.4,13.5 82.2,13.1 C82,12.6 82,12 82,11.3 L82,5.4 C82,2.1 83.5,0.5 86.6,0.5 L89,0.5 C92.1,0.5 93.6,2.1 93.6,5.4 L93.6,8.2 L89.7,8.2 L89.9,7.9 Z" id="Path" fill="#F1F2F2" fill-rule="nonzero"></path>
                        </g>
                    </g>
                    <g filter="url(#filter-2)">
                        <g transform="translate(8.460000, 0.000000)">
                            <path d="M24.94,2.5 C24.94,2.5 24.94,2.5 24.84,2.5 C24.64,2.5 24.64,2.3 24.64,2.3 C24.04,2.3 23.44,2.4 22.84,2.7 C23.24,3.4 23.54,4.2 23.54,5.1 C23.54,7.3 21.34,11.2 17.04,11.2 C12.74,11.2 15.54,11 15.14,10.7 C11.54,15.4 7.74,20.4 3.24,20.4 C-1.26,20.4 0.24,18.7 0.24,17.9 C0.24,17.1 1.44,16.2 1.44,16.8 C1.44,17.4 0.64,17.1 0.64,17.9 C0.64,18.7 1.74,19 3.24,19 C7.34,19 11.04,14.5 14.64,10.2 C14.54,10 14.44,9.7 14.44,9.6 C12.84,11.9 9.94,14.2 6.64,14.2 C3.34,14.2 3.34,12.7 3.34,10.5 C3.34,4.6 10.44,0 16.24,0 C22.04,0 21.64,1 22.84,2.5 C23.54,2.2 24.24,2 24.94,2 C25.64,2 25.44,2.3 25.24,2.5 L24.94,2.5 Z M21.94,2.8 C21.24,1.3 19.04,0.6 16.44,0.6 C10.94,0.6 3.54,5 3.54,10.5 C3.54,16 4.84,13.2 6.14,13.2 C11.74,13.2 17.34,5 13.84,5 C10.34,5 7.34,8.1 6.64,11.1 C6.64,11.2 6.64,11.3 6.44,11.3 C6.24,11.3 6.34,11.3 6.34,11.1 C7.04,7.5 11.34,4.7 13.94,4.7 C16.54,4.7 16.04,7.1 14.44,9.5 C14.44,9.5 14.44,9.5 14.64,9.6 C14.64,9.6 14.64,9.6 14.64,9.6 C14.64,9.6 14.64,9.8 14.84,9.9 C17.24,7 19.64,4.1 22.14,2.8 L21.94,2.8 Z M22.24,4.1 C22.24,3.8 22.24,3.5 22.14,3.2 C19.84,4.5 17.64,7.4 15.34,10.4 C15.74,10.6 16.24,10.7 16.84,10.7 C20.14,10.7 22.24,6.5 22.24,4.1 L22.24,4.1 Z" id="Shape" fill="#A39269" fill-rule="nonzero"></path>
                            <path d="M27.84,12.8 C27.94,12.8 28.04,12.9 27.84,13 C25.64,16 23.24,18 22.34,18 C21.44,18 21.34,17.2 21.34,16.6 C21.34,15.7 21.94,14.4 22.74,13.2 C24.14,11.2 25.74,9.9 25.74,9.6 C25.74,9.6 25.74,9.6 25.74,9.6 C25.54,9.6 24.84,9.9 23.64,9.9 C22.74,11.6 18.14,18 17.14,18 C16.14,18 16.64,17.8 16.64,17.6 C16.64,17.6 16.74,17.5 16.84,17.5 C17.14,17.5 17.34,17.4 17.84,16.9 C20.04,14.8 22.54,10.9 23.24,9.7 C23.44,9.1 23.04,9 23.04,8.3 C23.04,7.6 24.04,7.6 24.04,8.3 C24.04,9 23.84,9.3 23.74,9.6 C24.74,9.6 25.74,9.1 26.34,9.1 C26.94,9.1 27.04,9.4 27.04,9.7 C27.04,10 26.84,10.5 26.44,10.9 C25.84,11.7 24.64,12.9 23.84,14 C22.84,15.3 22.14,16.8 22.14,17.5 C22.14,18.2 22.14,17.7 22.34,17.7 C23.14,17.7 25.54,15.5 27.34,12.9 C27.34,12.9 27.44,12.8 27.54,12.8 L27.54,12.8 L27.84,12.8 Z" id="Path" fill="#A39269" fill-rule="nonzero"></path>
                            <path d="M34.44,13 C32.64,15.4 28.94,18.1 27.14,18.1 C25.34,18.1 26.14,16.9 26.14,16.5 C26.14,13.8 30.04,8.9 33.34,8.9 C36.64,8.9 34.44,11.1 31.84,12.4 C30.94,12.9 29.84,13.1 29.14,13.2 C27.94,14.9 26.94,16.7 26.94,17.4 C26.94,18.1 26.94,17.6 27.14,17.6 C28.84,17.6 32.34,15 34.04,12.8 C34.04,12.8 34.14,12.7 34.24,12.7 L34.24,12.7 C34.34,12.7 34.44,12.8 34.24,12.9 L34.44,13 Z M33.34,9.3 C32.54,9.3 31.24,10.5 30.04,12 C29.84,12.3 29.64,12.6 29.44,12.8 C30.14,12.7 31.04,12.4 31.74,12 C33.54,11 34.04,9.2 33.44,9.2 L33.44,9.2 L33.34,9.3 Z" id="Shape" fill="#A39269" fill-rule="nonzero"></path>
                            <path d="M48.14,13 C46.34,15.4 43.74,18 42.64,18 C41.54,18 41.84,17.4 41.84,17 C41.84,16 43.04,14.3 44.44,12.5 C45.14,11.6 46.04,10.3 46.04,9.6 C46.04,8.9 46.04,9.2 45.64,9.2 C44.04,9.2 40.04,15.4 38.44,17.7 C38.44,17.8 38.34,17.8 38.24,17.7 C38.24,17.7 38.14,17.7 38.04,17.7 C37.74,17.6 37.54,17.6 37.24,17.7 C37.14,17.7 37.04,17.7 36.94,17.7 C36.94,17.7 36.94,17.6 36.94,17.5 C38.74,15 39.14,14.2 40.34,12.4 C41.04,11.4 41.84,10.1 41.84,9.5 C41.84,8.9 41.84,9.2 41.44,9.2 C39.94,9.2 36.14,15.1 34.44,17.5 C34.44,17.5 34.44,17.6 34.24,17.7 L34.04,17.7 C34.04,17.8 33.84,17.8 33.74,17.8 C33.54,17.8 33.24,17.8 32.94,17.8 C32.84,17.8 32.74,17.8 32.64,17.8 C32.64,17.8 32.64,17.7 32.64,17.6 C35.34,13.4 37.54,10.6 37.54,9.5 C37.54,8.4 37.54,9.3 37.54,9.3 C37.14,9.3 35.74,11 34.24,12.9 C34.24,12.9 34.14,13 34.04,13 L34.04,13 C33.84,13 33.84,12.9 33.94,12.8 C35.44,10.8 36.84,9.1 37.54,9 C38.04,8.9 38.74,9.2 38.74,10.2 C38.74,11.2 38.54,11 38.34,11.4 C39.54,10 40.64,9 41.34,9 C42.04,9 42.64,9.5 42.64,10.3 C42.64,11.1 42.54,11.1 42.34,11.5 C43.54,10.1 44.64,9 45.44,9 C46.24,9 46.84,9.5 46.84,10.3 C46.84,11.1 46.34,12.2 45.54,13.3 C43.94,15.5 42.44,17.2 42.44,17.7 C42.44,18.2 42.44,17.7 42.44,17.7 C43.44,17.7 45.94,15.2 47.64,12.9 C47.64,12.9 47.74,12.8 47.84,12.8 L47.84,12.8 C47.94,12.8 48.04,12.9 47.84,13 L48.14,13 Z" id="Path" fill="#A39269" fill-rule="nonzero"></path>
                            <path d="M52.24,9 C51.24,10.4 50.04,12 49.04,13.3 C47.44,15.5 46.04,17.2 46.04,17.7 C46.04,18.2 46.04,17.7 46.04,17.7 C47.04,17.7 49.54,15.2 51.24,12.9 C51.24,12.9 51.34,12.8 51.44,12.8 L51.44,12.8 C51.64,12.8 51.64,12.9 51.54,13 C49.74,15.4 47.14,18 46.04,18 C44.94,18 45.24,17.4 45.24,17 C45.24,15.9 46.64,14.1 48.14,12.2 C48.94,11.1 49.24,10.7 50.54,9 C50.54,8.9 50.64,9 50.74,9 C50.94,9.3 51.54,9.1 51.94,8.7 C51.94,8.7 52.14,8.6 52.14,8.7 C52.14,8.7 52.14,8.8 52.14,8.9 L52.24,9 Z M54.54,4.9 C54.34,5.4 53.84,5.8 53.44,5.7 C53.04,5.7 52.94,5.1 53.14,4.7 C53.34,4.2 53.84,3.8 54.24,3.9 C54.64,3.9 54.74,4.5 54.54,4.9 Z" id="Shape" fill="#A39269" fill-rule="nonzero"></path>
                            <path d="M53.94,17.7 C54.94,17.7 57.44,15.2 59.14,12.9 C59.14,12.9 59.24,12.8 59.34,12.8 L59.34,12.8 C59.54,12.8 59.54,12.9 59.44,13 C57.64,15.4 55.04,18.1 53.94,18.1 C52.84,18.1 53.14,17.5 53.14,17.1 C53.14,16.7 53.34,16.2 53.64,15.7 C52.24,17.1 50.84,18.1 50.24,18.1 C49.14,18.1 49.04,16.9 49.34,16 C49.84,14.1 52.94,10.8 54.24,9 C54.24,9 54.24,9 54.24,9 C54.24,9.5 55.04,9.2 55.44,8.8 C55.44,8.8 55.64,8.8 55.74,8.8 C55.74,8.8 55.74,8.9 55.74,9 C54.14,11.2 50.04,15.8 50.04,17.4 C50.04,19 50.04,17.6 50.24,17.6 C51.04,17.6 53.64,15.3 55.34,13.1 C55.54,12.8 55.84,12.5 56.04,12.2 C56.84,11.1 57.34,10.7 58.44,9 C58.44,8.9 58.54,9 58.64,9 C58.84,9.3 59.34,9.2 59.64,8.8 C59.64,8.8 59.84,8.8 59.94,8.8 C59.94,8.8 59.94,8.9 59.94,9 C58.94,10.4 57.84,11.8 56.84,13.2 C55.24,15.4 53.84,17.1 53.84,17.6 C53.84,18.1 53.84,17.6 53.84,17.6 L53.84,17.6 L53.94,17.7 Z" id="Path" fill="#A39269" fill-rule="nonzero"></path>
                            <path d="M73.24,13 C71.44,15.4 68.84,18 67.74,18 C66.64,18 66.94,17.4 66.94,17 C66.94,16 68.14,14.3 69.54,12.5 C70.24,11.6 71.14,10.3 71.14,9.6 C71.14,8.9 71.14,9.2 70.74,9.2 C69.14,9.2 65.14,15.4 63.54,17.7 C63.54,17.8 63.44,17.8 63.34,17.7 C63.34,17.7 63.24,17.7 63.14,17.7 C62.84,17.6 62.64,17.6 62.34,17.7 C62.24,17.7 62.14,17.7 62.04,17.7 C62.04,17.7 62.04,17.6 62.04,17.5 C63.84,15 64.24,14.2 65.44,12.4 C66.14,11.4 66.94,10.1 66.94,9.5 C66.94,8.9 66.94,9.2 66.54,9.2 C65.04,9.2 61.24,15.1 59.54,17.5 C59.54,17.5 59.54,17.6 59.34,17.7 L59.14,17.7 C59.14,17.8 58.94,17.8 58.84,17.8 C58.64,17.8 58.34,17.8 58.04,17.8 C57.94,17.8 57.84,17.8 57.74,17.8 C57.74,17.8 57.74,17.7 57.74,17.6 C60.44,13.4 62.64,10.6 62.64,9.5 C62.64,8.4 62.64,9.3 62.64,9.3 C62.24,9.3 60.84,11 59.34,12.9 C59.34,12.9 59.24,13 59.14,13 L59.14,13 C58.94,13 58.94,12.9 59.04,12.8 C60.54,10.8 61.94,9.1 62.64,9 C63.14,8.9 63.84,9.2 63.84,10.2 C63.84,11.2 63.74,11 63.44,11.4 C64.64,10 65.74,9 66.44,9 C67.14,9 67.74,9.5 67.74,10.3 C67.74,11.1 67.64,11.1 67.44,11.5 C68.64,10.1 69.74,9 70.54,9 C71.34,9 71.94,9.5 71.94,10.3 C71.94,11.1 71.44,12.2 70.64,13.3 C69.04,15.5 67.54,17.2 67.54,17.7 C67.54,18.2 67.54,17.7 67.54,17.7 C68.54,17.7 71.04,15.2 72.74,12.9 C72.74,12.9 72.84,12.8 72.94,12.8 L72.94,12.8 C73.04,12.8 73.14,12.9 72.94,13 L73.24,13 Z" id="Path" fill="#A39269" fill-rule="nonzero"></path>
                        </g>
                    </g>
                </g>
            </g>
        </g>
    </g>
</svg>