<?xml version="1.0" standalone="no"?>
<!DOCTYPE svg PUBLIC "-//W3C//DTD SVG 20010904//EN"
 "http://www.w3.org/TR/2001/REC-SVG-20010904/DTD/svg10.dtd">
<svg version="1.0" xmlns="http://www.w3.org/2000/svg"
 width="2048.000000pt" height="1152.000000pt" viewBox="0 0 2048.000000 1152.000000"
 preserveAspectRatio="xMidYMid meet">

<g transform="translate(0.000000,1152.000000) scale(0.100000,-0.100000)"
fill="#000000" stroke="none">
<path d="M0 5760 l0 -5760 10240 0 10240 0 0 5760 0 5760 -10240 0 -10240 0 0
-5760z m11160 5215 c102 -8 282 -21 400 -30 289 -20 282 -19 470 -43 91 -11
219 -26 285 -32 66 -7 152 -18 192 -26 40 -8 89 -14 110 -14 21 0 55 -5 76
-11 41 -11 161 -32 307 -54 147 -21 259 -42 325 -59 32 -9 68 -16 80 -16 19 0
89 -14 315 -65 58 -13 122 -26 142 -30 21 -3 57 -15 80 -25 24 -11 54 -20 68
-20 14 0 53 -7 85 -16 33 -9 97 -24 142 -34 45 -11 96 -26 112 -35 17 -8 61
-22 98 -30 108 -23 276 -70 303 -85 14 -7 61 -24 105 -36 156 -44 270 -81 310
-101 22 -11 64 -26 93 -32 29 -6 72 -21 95 -32 23 -12 80 -35 126 -50 46 -16
88 -33 95 -38 6 -5 38 -17 71 -26 33 -10 87 -31 119 -47 33 -17 82 -37 110
-45 27 -8 73 -28 101 -44 28 -16 77 -38 109 -49 32 -11 73 -29 90 -40 18 -11
64 -31 101 -45 38 -15 81 -35 96 -45 14 -11 63 -35 107 -53 44 -19 95 -46 113
-60 19 -14 62 -37 97 -51 35 -14 77 -37 95 -52 18 -15 65 -42 106 -61 41 -19
91 -47 111 -63 20 -16 62 -40 95 -54 32 -15 77 -41 99 -60 23 -18 65 -45 94
-59 30 -15 72 -42 95 -60 23 -19 60 -45 82 -58 63 -38 161 -110 220 -161 30
-26 71 -56 92 -67 21 -10 52 -34 68 -51 17 -18 48 -44 70 -58 47 -30 125 -95
207 -174 32 -32 64 -58 70 -58 6 0 34 -24 63 -52 29 -29 66 -64 81 -78 16 -14
40 -38 54 -53 14 -16 43 -46 65 -67 22 -22 63 -65 90 -96 28 -31 73 -79 101
-108 29 -28 59 -66 68 -83 9 -18 21 -33 26 -33 6 0 23 -19 38 -43 15 -24 45
-61 67 -83 45 -46 75 -89 106 -154 12 -25 34 -56 50 -68 16 -13 36 -38 43 -55
7 -18 27 -47 45 -64 17 -18 31 -39 31 -47 0 -20 69 -156 97 -189 13 -16 23
-36 23 -46 0 -10 13 -35 30 -57 16 -21 30 -43 30 -49 0 -5 11 -32 25 -60 13
-27 25 -60 25 -73 0 -13 9 -40 19 -60 47 -90 71 -145 71 -164 0 -19 20 -94 42
-153 44 -123 56 -171 62 -240 4 -44 15 -120 24 -170 13 -71 16 -159 17 -420 0
-289 -3 -349 -22 -485 -31 -217 -42 -269 -63 -315 -21 -47 -45 -123 -55 -179
-4 -22 -13 -49 -21 -60 -8 -11 -14 -27 -14 -36 0 -8 -7 -28 -16 -45 -17 -32
-58 -136 -76 -195 -5 -19 -18 -45 -29 -58 -10 -13 -23 -40 -30 -60 -6 -20 -25
-52 -40 -70 -16 -18 -29 -38 -29 -45 0 -7 -14 -32 -30 -56 -17 -24 -30 -52
-30 -61 0 -10 -14 -34 -30 -55 -17 -21 -30 -44 -30 -52 0 -8 -19 -35 -42 -61
-24 -26 -52 -64 -62 -84 -11 -21 -22 -38 -26 -38 -5 0 -15 -18 -24 -40 -9 -22
-36 -62 -61 -88 -25 -26 -62 -65 -83 -86 -20 -22 -42 -52 -49 -68 -7 -15 -52
-68 -102 -117 -49 -48 -96 -102 -105 -119 -9 -17 -30 -41 -48 -53 -18 -13 -42
-35 -53 -48 -11 -14 -31 -35 -45 -46 -24 -20 -105 -95 -199 -185 -26 -25 -63
-57 -82 -70 -18 -13 -55 -43 -81 -67 -26 -24 -52 -43 -58 -43 -6 0 -40 -27
-75 -60 -35 -33 -69 -60 -74 -60 -5 0 -31 -20 -57 -43 -27 -24 -69 -57 -94
-72 -25 -15 -62 -43 -82 -61 -20 -18 -56 -43 -80 -55 -24 -12 -60 -37 -80 -55
-21 -18 -68 -49 -106 -68 -37 -19 -74 -42 -81 -50 -8 -9 -50 -35 -94 -58 -44
-23 -92 -52 -106 -64 -14 -12 -64 -41 -111 -64 -47 -23 -96 -51 -109 -62 -14
-10 -63 -37 -110 -59 -47 -22 -93 -46 -102 -55 -9 -8 -52 -30 -95 -48 -44 -18
-96 -45 -117 -59 -21 -14 -61 -33 -90 -43 -29 -9 -79 -31 -112 -50 -33 -18
-87 -43 -119 -55 -33 -12 -74 -30 -91 -40 -18 -11 -56 -26 -86 -35 -30 -9 -83
-31 -119 -49 -36 -18 -86 -38 -110 -45 -25 -7 -65 -22 -90 -35 -25 -12 -76
-32 -115 -44 -38 -13 -81 -29 -95 -36 -14 -7 -54 -21 -88 -30 -35 -9 -89 -29
-120 -44 -31 -16 -81 -34 -110 -40 -30 -6 -63 -16 -75 -23 -12 -6 -58 -21
-103 -33 -44 -13 -95 -30 -113 -39 -18 -10 -66 -24 -107 -31 -41 -8 -87 -21
-102 -29 -15 -7 -54 -19 -87 -26 -33 -6 -79 -20 -102 -30 -24 -10 -64 -22 -90
-26 -56 -8 -250 -55 -343 -84 -68 -21 -183 -45 -285 -61 -33 -5 -80 -16 -105
-24 -25 -8 -65 -17 -90 -20 -25 -3 -81 -14 -125 -25 -106 -24 -254 -50 -291
-50 -17 0 -55 -7 -86 -15 -64 -16 -219 -43 -323 -55 -38 -4 -128 -15 -200 -25
-71 -9 -170 -20 -220 -25 -49 -5 -137 -16 -195 -24 -58 -9 -172 -20 -255 -26
-82 -6 -220 -15 -305 -21 -85 -5 -240 -16 -345 -24 -133 -10 -377 -14 -815
-15 -605 0 -808 7 -1255 40 -77 6 -201 15 -275 20 -161 11 -302 27 -350 40
-19 6 -57 10 -84 10 -27 0 -77 4 -110 9 -34 6 -122 17 -196 26 -74 9 -171 22
-215 30 -44 8 -91 15 -105 15 -14 0 -68 9 -120 20 -52 10 -142 27 -200 35 -58
9 -143 25 -190 35 -47 10 -110 23 -140 28 -50 9 -111 22 -240 54 -25 6 -79 16
-120 24 -41 7 -101 22 -132 33 -32 12 -66 21 -76 21 -10 0 -56 11 -102 25 -46
14 -97 25 -114 25 -17 1 -49 8 -71 17 -22 8 -78 26 -125 39 -47 12 -105 30
-130 38 -25 9 -72 22 -105 30 -65 16 -189 56 -272 88 -29 11 -79 26 -113 34
-33 7 -86 27 -118 43 -31 16 -81 34 -110 40 -29 6 -69 19 -90 30 -20 10 -60
26 -88 34 -28 8 -73 26 -100 39 -27 14 -71 30 -98 37 -28 7 -84 30 -125 52
-41 21 -82 39 -90 39 -9 0 -48 15 -87 34 -39 18 -81 37 -95 41 -13 3 -64 26
-114 50 -49 24 -119 57 -155 74 -36 17 -81 39 -100 50 -19 11 -69 36 -110 57
-226 112 -269 135 -275 144 -4 6 -48 31 -98 56 -51 26 -101 54 -112 64 -11 10
-55 36 -98 59 -43 22 -92 52 -109 66 -17 15 -58 40 -92 57 -34 17 -78 46 -98
64 -20 18 -56 43 -80 55 -24 12 -69 44 -101 70 -32 27 -63 49 -67 49 -5 0 -30
18 -55 40 -26 22 -71 56 -100 75 -30 19 -59 43 -65 55 -6 12 -37 37 -68 57
-31 20 -65 47 -75 59 -9 12 -34 33 -55 45 -20 12 -59 44 -87 70 -27 26 -80 76
-116 111 -36 35 -101 97 -146 138 -44 41 -87 89 -96 107 -9 17 -32 41 -52 53
-20 12 -42 34 -50 49 -7 15 -30 40 -50 55 -19 15 -42 42 -49 61 -13 31 -35 56
-145 170 -21 22 -42 50 -45 62 -4 12 -20 38 -36 58 -17 21 -30 44 -30 52 0 8
-16 31 -36 51 -20 20 -45 56 -56 79 -10 22 -28 49 -39 59 -10 9 -19 25 -19 34
0 10 -11 34 -25 54 -14 21 -32 54 -41 74 -8 20 -24 46 -34 57 -10 11 -26 38
-36 60 -9 22 -22 47 -29 55 -14 16 -50 110 -66 175 -6 22 -16 47 -24 55 -7 8
-17 29 -21 45 -4 17 -15 47 -25 67 -11 21 -19 48 -19 60 0 13 -14 61 -31 108
-45 126 -66 216 -73 305 -3 44 -10 96 -16 114 -10 37 -34 340 -34 431 0 105
22 366 43 515 26 180 37 231 66 310 37 97 55 158 55 183 0 13 9 40 19 60 47
88 71 143 71 159 1 10 9 36 20 58 11 22 19 45 20 51 0 6 12 29 26 50 15 21 31
53 36 70 4 18 22 49 38 69 17 21 30 43 30 50 0 7 11 28 24 47 13 20 29 51 35
70 7 20 21 44 32 54 12 11 28 32 36 49 8 16 30 46 48 65 18 19 41 51 52 71 39
76 60 106 100 146 23 23 53 59 66 80 14 21 36 49 51 62 14 14 26 31 26 38 0
12 42 57 287 307 37 39 106 105 153 147 47 43 110 101 140 129 97 90 154 137
210 173 30 19 69 49 85 67 17 17 47 41 68 51 21 11 55 35 75 53 35 31 98 77
210 153 26 18 70 50 98 73 28 22 72 49 98 61 26 11 62 34 80 50 19 16 65 43
103 60 37 17 85 44 105 60 20 16 69 44 110 63 40 18 88 45 105 60 18 15 60 38
95 52 35 14 78 37 97 51 18 14 70 41 115 60 44 19 88 41 97 49 8 8 44 26 79
40 36 14 94 41 130 58 36 18 78 36 95 40 16 4 70 27 119 52 49 24 95 44 103
44 8 0 44 15 81 34 37 19 87 40 112 46 24 7 65 22 90 35 25 12 72 30 105 40
32 9 82 28 110 42 27 14 76 32 108 39 32 8 76 24 100 35 23 12 80 33 127 46
204 58 248 72 305 97 33 14 68 26 78 26 9 0 50 11 89 25 39 14 81 25 92 25 12
0 58 13 103 29 44 16 101 32 125 36 23 3 63 13 88 20 25 8 76 19 114 25 38 6
81 17 95 25 15 7 61 20 102 28 41 8 103 22 139 30 70 17 120 27 277 56 56 11
107 22 113 26 10 6 59 15 255 45 196 30 266 42 335 55 42 8 88 15 103 15 15 0
60 6 100 14 40 8 126 19 192 26 66 7 192 21 280 32 88 11 214 24 280 28 178
12 386 29 505 42 268 28 1577 30 1930 3z"/>
<path d="M9915 10753 c-247 -5 -625 -23 -696 -33 -41 -5 -155 -15 -254 -21
-99 -6 -211 -14 -250 -18 -38 -4 -142 -15 -230 -24 -224 -24 -485 -60 -502
-70 -5 -3 -52 -11 -104 -17 -52 -6 -132 -17 -179 -24 -47 -8 -131 -21 -187
-30 -57 -9 -115 -21 -129 -26 -14 -6 -69 -17 -122 -26 -53 -8 -99 -17 -104
-20 -4 -3 -36 -9 -70 -15 -81 -12 -221 -45 -323 -75 -44 -13 -87 -24 -95 -24
-9 0 -43 -7 -75 -16 -33 -9 -89 -22 -125 -29 -36 -7 -87 -23 -114 -34 -27 -12
-85 -30 -130 -41 -174 -40 -248 -61 -277 -75 -16 -9 -69 -26 -117 -40 -109
-30 -203 -60 -267 -87 -27 -11 -86 -31 -130 -43 -44 -12 -96 -31 -115 -43 -19
-11 -62 -28 -95 -37 -33 -10 -78 -27 -100 -38 -22 -11 -71 -30 -109 -43 -38
-13 -84 -33 -102 -43 -19 -11 -57 -27 -85 -35 -29 -9 -75 -29 -103 -44 -28
-16 -78 -39 -111 -51 -33 -12 -82 -35 -110 -51 -27 -16 -76 -38 -107 -50 -31
-11 -68 -30 -83 -42 -14 -11 -62 -35 -106 -54 -44 -19 -94 -45 -112 -58 -18
-13 -61 -36 -97 -50 -36 -15 -82 -40 -102 -57 -21 -16 -66 -43 -101 -58 -35
-16 -79 -42 -98 -59 -19 -16 -63 -44 -99 -62 -36 -18 -80 -45 -98 -61 -18 -16
-51 -39 -75 -50 -23 -12 -64 -39 -92 -61 -66 -51 -168 -127 -215 -158 -20 -14
-59 -44 -86 -66 -27 -23 -60 -47 -73 -53 -13 -7 -50 -37 -82 -67 -32 -30 -63
-54 -69 -54 -9 0 -34 -23 -180 -163 -25 -24 -59 -53 -76 -65 -17 -11 -43 -39
-58 -60 -15 -22 -42 -47 -60 -57 -18 -10 -45 -37 -60 -62 -16 -24 -36 -48 -47
-53 -10 -6 -32 -30 -49 -55 -17 -25 -44 -52 -60 -60 -16 -9 -37 -30 -46 -48
-9 -17 -32 -49 -50 -70 -19 -20 -34 -42 -34 -48 0 -6 -24 -34 -53 -63 -55 -55
-86 -98 -113 -156 -9 -19 -34 -54 -55 -79 -21 -24 -39 -49 -39 -55 0 -7 -16
-27 -35 -46 -19 -19 -35 -39 -35 -46 0 -7 -13 -38 -30 -69 -16 -31 -30 -63
-30 -70 0 -8 -11 -27 -25 -43 -13 -16 -33 -49 -43 -73 -11 -25 -27 -50 -35
-58 -9 -7 -19 -29 -23 -50 -3 -20 -12 -45 -19 -56 -7 -11 -16 -36 -20 -55 -4
-19 -15 -48 -25 -65 -10 -16 -21 -47 -25 -68 -4 -20 -11 -39 -15 -42 -5 -3
-11 -24 -15 -48 -8 -46 -38 -145 -59 -192 -26 -57 -45 -170 -51 -294 -4 -69
-8 -127 -10 -130 -2 -3 -11 -69 -20 -146 -16 -135 -16 -145 4 -290 11 -82 23
-195 26 -250 8 -146 23 -220 61 -315 18 -47 38 -105 43 -130 18 -80 37 -144
55 -185 47 -104 56 -127 56 -149 0 -13 11 -40 25 -60 14 -20 25 -41 25 -45 0
-5 15 -32 34 -60 19 -28 39 -66 46 -85 6 -19 17 -40 25 -46 7 -6 17 -26 20
-43 4 -18 19 -48 34 -67 15 -19 34 -46 41 -60 7 -14 30 -44 51 -67 22 -24 39
-49 39 -56 0 -7 9 -23 21 -35 11 -13 27 -39 36 -59 8 -20 36 -58 61 -84 75
-75 121 -134 133 -167 6 -18 25 -40 44 -51 19 -11 45 -37 60 -59 14 -21 37
-45 51 -53 14 -7 34 -30 45 -51 10 -20 31 -45 45 -55 22 -16 132 -119 314
-297 30 -30 65 -59 78 -66 13 -6 48 -34 78 -61 30 -27 58 -49 63 -49 5 0 35
-24 68 -53 60 -53 116 -96 201 -154 26 -18 70 -50 97 -71 28 -22 70 -50 95
-62 25 -13 70 -42 100 -65 30 -24 75 -52 101 -62 25 -11 61 -34 80 -50 18 -17
63 -45 99 -63 36 -18 79 -43 96 -56 17 -13 68 -41 112 -63 45 -21 95 -49 111
-60 16 -12 60 -35 98 -52 37 -16 88 -43 113 -59 25 -15 77 -40 115 -55 39 -15
77 -34 86 -42 9 -8 56 -29 103 -48 48 -19 102 -43 119 -54 18 -10 55 -26 83
-34 28 -8 82 -31 120 -50 38 -19 94 -43 124 -53 30 -9 64 -23 75 -29 11 -7 58
-25 105 -40 47 -16 94 -34 105 -41 11 -7 49 -20 84 -29 36 -9 90 -29 121 -45
31 -16 74 -32 96 -36 21 -4 61 -15 88 -26 27 -10 72 -24 100 -29 28 -6 80 -24
116 -39 36 -15 87 -31 115 -35 27 -4 62 -13 77 -21 15 -8 66 -23 113 -34 47
-11 98 -26 113 -34 15 -8 59 -19 99 -25 39 -6 84 -16 100 -22 15 -5 59 -17 98
-25 38 -8 95 -23 125 -33 30 -10 84 -24 120 -30 71 -12 209 -40 310 -64 36 -8
92 -21 125 -27 58 -12 94 -18 324 -54 58 -10 108 -19 112 -21 4 -3 54 -11 110
-19 57 -8 133 -19 169 -25 83 -13 206 -28 345 -41 61 -6 157 -17 215 -25 179
-24 280 -34 410 -40 69 -3 213 -13 320 -23 291 -24 1494 -24 1800 1 118 9 285
22 370 27 184 12 332 28 380 40 37 9 182 23 415 39 134 10 187 18 390 61 105
22 249 47 320 56 28 3 64 10 81 15 17 5 67 16 110 23 44 7 108 21 144 30 121
30 249 56 274 56 14 0 54 11 88 24 35 12 85 26 111 30 26 4 71 15 100 25 29
10 77 21 107 25 30 4 74 16 97 26 23 10 68 23 100 30 32 6 81 20 108 30 28 11
76 24 107 29 31 6 75 19 97 30 21 11 74 30 116 41 43 12 85 25 95 30 9 5 46
16 83 24 37 9 86 26 110 37 23 12 78 34 122 49 44 15 130 47 190 70 61 23 146
55 190 72 44 16 98 40 120 53 22 13 67 31 100 40 33 10 78 28 100 41 22 12 70
34 106 47 37 14 84 37 105 51 22 13 66 35 99 47 33 12 79 35 102 50 22 16 75
44 117 63 43 20 89 45 104 56 15 12 59 37 99 55 40 18 87 45 106 59 18 14 62
39 98 55 35 16 82 44 104 61 22 18 63 43 90 55 28 13 70 39 95 60 24 20 67 48
94 62 28 14 70 43 92 63 23 21 57 46 75 55 18 10 59 39 91 66 33 27 63 49 67
49 5 0 36 25 70 55 34 30 66 55 71 55 4 0 32 22 62 49 29 26 67 57 84 67 17
11 55 43 85 72 150 147 281 269 308 290 17 13 31 30 31 39 0 8 47 61 104 117
61 60 108 114 112 130 3 15 17 34 30 43 13 8 37 37 53 63 16 27 39 51 51 55
14 4 31 27 45 60 13 29 29 56 35 60 7 4 20 27 30 50 10 24 27 48 38 54 11 6
34 35 51 66 17 30 35 55 40 55 5 0 14 15 21 32 6 18 25 60 41 92 16 32 29 64
29 71 0 7 7 19 17 26 9 8 25 34 36 59 11 25 27 54 37 65 9 11 22 38 28 60 13
48 36 114 61 175 10 25 25 70 34 100 34 124 61 207 77 240 62 129 80 887 29
1210 -19 119 -61 265 -82 286 -4 4 -7 21 -7 38 0 17 -9 51 -20 75 -11 24 -20
48 -20 54 0 6 -9 29 -19 51 -11 23 -24 57 -30 76 -22 76 -49 143 -68 169 -11
14 -24 38 -28 51 -4 14 -19 41 -35 60 -15 19 -31 46 -35 59 -4 14 -18 45 -31
69 -13 25 -24 51 -24 59 0 7 -12 23 -26 36 -14 12 -37 44 -50 70 -14 26 -32
51 -41 54 -8 3 -26 29 -40 57 -35 75 -62 113 -120 171 -29 29 -53 57 -53 64 0
6 -15 28 -34 48 -18 21 -41 53 -50 70 -9 18 -30 39 -46 48 -16 8 -42 32 -57
52 -70 92 -373 392 -425 419 -14 7 -36 30 -48 49 -12 20 -38 44 -59 54 -20 11
-49 34 -66 51 -16 18 -59 51 -95 75 -36 23 -71 50 -79 59 -8 10 -44 37 -80 62
-151 103 -190 131 -225 161 -20 18 -56 43 -79 54 -23 12 -57 35 -75 50 -18 16
-61 43 -95 60 -34 18 -75 43 -91 56 -16 13 -60 40 -98 59 -38 19 -90 50 -116
68 -26 18 -71 42 -99 54 -29 11 -72 34 -96 50 -24 17 -72 42 -107 56 -36 15
-81 37 -100 49 -19 13 -60 33 -90 46 -30 13 -78 36 -107 52 -28 16 -77 38
-108 49 -31 11 -80 33 -108 49 -29 16 -72 35 -97 41 -24 7 -69 24 -100 40 -30
15 -80 35 -110 45 -30 10 -68 26 -85 35 -16 10 -57 26 -90 35 -33 10 -85 30
-115 45 -30 15 -83 35 -117 44 -35 8 -80 24 -101 35 -21 11 -67 27 -102 36
-35 9 -77 23 -92 31 -15 8 -59 21 -98 29 -39 8 -88 24 -110 35 -22 11 -70 27
-107 35 -38 9 -80 20 -95 26 -14 6 -61 19 -105 29 -43 10 -105 27 -138 38 -70
24 -170 49 -272 67 -40 8 -81 19 -92 25 -11 5 -62 19 -113 29 -51 11 -104 24
-118 29 -14 5 -50 13 -80 16 -30 4 -77 13 -105 21 -27 7 -72 16 -100 20 -27 3
-75 13 -105 22 -30 8 -80 19 -110 23 -30 5 -98 16 -150 24 -143 24 -207 35
-295 47 -44 6 -118 18 -165 25 -110 17 -211 30 -395 50 -82 9 -186 20 -230 25
-44 4 -186 15 -315 23 -129 9 -275 20 -325 26 -49 5 -254 14 -455 20 -341 9
-448 10 -755 3z m2515 -1349 c602 -4 773 -10 970 -35 47 -5 137 -14 200 -19
132 -10 278 -41 327 -70 18 -11 61 -27 95 -36 34 -8 78 -24 99 -34 65 -34 139
-127 139 -176 0 -32 -58 -111 -104 -143 -143 -99 -563 -307 -709 -352 -56 -18
-120 -42 -142 -55 -22 -12 -69 -30 -104 -39 -36 -9 -87 -28 -114 -41 -27 -14
-79 -31 -116 -39 -147 -29 -236 -57 -277 -87 -27 -19 -77 -39 -135 -54 -159
-42 -249 -96 -249 -151 0 -32 41 -75 102 -108 29 -15 76 -50 104 -76 28 -26
69 -55 90 -64 68 -28 187 -108 239 -161 27 -27 102 -83 165 -124 63 -40 132
-93 154 -117 21 -24 55 -52 75 -62 20 -11 47 -31 61 -46 14 -15 54 -44 90 -65
36 -21 76 -50 90 -65 14 -15 41 -35 62 -46 20 -10 46 -32 58 -49 12 -16 40
-43 64 -59 24 -17 50 -46 60 -68 15 -34 31 -45 163 -113 80 -41 171 -93 202
-115 31 -23 72 -50 91 -62 19 -12 43 -35 53 -51 9 -17 36 -41 60 -55 23 -14
50 -34 61 -46 10 -11 50 -32 90 -47 39 -15 85 -35 103 -46 17 -10 71 -30 120
-45 74 -21 100 -24 166 -19 128 9 176 -24 127 -86 -23 -30 -44 -39 -171 -72
-62 -17 -123 -26 -169 -26 -40 0 -109 -7 -153 -16 -112 -23 -170 -16 -270 34
-64 32 -90 51 -116 86 -18 26 -36 46 -41 46 -5 0 -32 21 -62 46 -29 25 -70 57
-90 70 -21 13 -47 42 -58 63 -11 22 -36 49 -58 63 -62 36 -159 109 -215 159
-29 26 -101 79 -160 119 -59 40 -118 86 -130 103 -50 68 -146 145 -233 187
-33 16 -82 45 -107 64 -26 20 -73 49 -105 65 -33 16 -72 41 -88 54 -16 13 -53
39 -81 56 -29 18 -56 39 -60 46 -10 17 -175 126 -244 160 -30 15 -72 44 -95
65 -22 20 -62 50 -90 65 -27 16 -66 44 -88 63 -21 19 -62 45 -90 57 -28 13
-68 35 -89 49 -21 15 -60 37 -87 51 -83 42 -110 97 -71 146 29 37 166 105 266
133 179 49 251 73 295 98 25 14 72 32 105 38 116 23 244 61 287 84 25 14 74
28 118 34 90 12 355 118 540 217 25 14 70 31 101 40 34 9 81 33 115 58 33 24
78 54 100 67 116 63 72 185 -96 270 -49 25 -97 40 -135 45 -33 4 -93 16 -134
26 -41 10 -91 19 -110 19 -20 0 -52 4 -71 10 -85 24 -365 42 -695 45 -187 1
-379 5 -426 10 -71 6 -108 3 -209 -15 -105 -20 -132 -22 -189 -13 -86 14 -116
27 -136 57 -20 30 -12 61 21 82 24 16 244 37 289 27 11 -2 306 -6 655 -9z
m-2390 -63 c30 -6 89 -17 130 -25 159 -31 261 -56 288 -70 16 -8 51 -20 78
-27 72 -18 312 -136 364 -179 25 -20 66 -49 93 -64 26 -15 54 -38 63 -50 8
-13 33 -36 55 -51 26 -16 47 -41 58 -68 10 -23 26 -49 35 -57 10 -7 36 -52 59
-99 41 -85 42 -87 42 -201 0 -86 -4 -126 -17 -155 -9 -22 -19 -52 -22 -66 -3
-14 -19 -43 -36 -64 -16 -21 -30 -44 -30 -51 0 -7 -20 -36 -45 -65 -25 -29
-45 -56 -45 -61 0 -4 -26 -25 -57 -46 -32 -22 -67 -50 -78 -62 -11 -12 -38
-31 -60 -43 -22 -11 -54 -30 -70 -43 -17 -13 -63 -37 -102 -53 -40 -17 -87
-40 -105 -50 -18 -11 -60 -25 -93 -31 -33 -7 -76 -20 -95 -30 -67 -34 -276
-68 -528 -86 -271 -19 -392 -15 -792 24 -79 8 -290 60 -330 82 -10 5 -54 21
-97 35 -43 13 -91 34 -108 45 -16 12 -70 41 -118 66 -49 25 -107 62 -130 83
-23 21 -62 51 -87 68 -25 17 -52 42 -59 56 -8 14 -31 40 -52 56 -21 18 -43 46
-50 68 -6 21 -20 51 -30 68 -11 16 -19 37 -19 46 0 9 -8 36 -19 60 -32 74 -35
157 -10 249 12 44 25 83 30 86 5 2 13 23 19 45 14 51 89 159 137 195 21 16 51
43 67 62 16 18 41 39 55 47 15 7 48 31 74 52 26 21 69 47 96 57 27 9 69 30 93
45 25 16 62 34 84 41 21 7 73 28 115 46 41 18 95 36 120 40 24 3 73 14 109 24
85 24 280 59 350 64 113 7 617 -2 670 -13z m-335 -1945 l1930 -1 52 -28 c29
-15 60 -38 69 -52 9 -14 32 -34 53 -47 35 -21 122 -95 206 -175 22 -22 61 -53
86 -70 25 -18 54 -44 63 -58 9 -14 41 -42 71 -61 30 -19 59 -43 65 -53 5 -11
27 -29 47 -42 21 -12 61 -43 88 -69 28 -25 66 -55 85 -67 19 -12 45 -35 58
-52 12 -17 39 -39 60 -50 20 -10 48 -31 62 -46 14 -15 54 -47 90 -70 36 -23
76 -55 90 -70 14 -15 42 -38 63 -52 21 -13 43 -36 50 -51 6 -15 22 -41 34 -58
13 -17 34 -62 47 -100 41 -117 24 -213 -68 -400 -22 -44 -45 -75 -62 -84 -14
-8 -36 -29 -49 -47 -12 -18 -40 -46 -63 -63 -23 -16 -48 -43 -57 -60 -9 -16
-33 -41 -55 -55 -22 -14 -49 -38 -61 -54 -12 -16 -45 -46 -74 -66 -29 -20 -78
-63 -110 -95 -48 -51 -56 -65 -53 -92 5 -50 62 -85 168 -102 47 -8 98 -19 115
-26 16 -6 62 -17 102 -25 39 -8 85 -21 101 -29 16 -8 53 -18 83 -22 30 -3 86
-17 124 -30 39 -12 95 -30 125 -38 34 -10 86 -38 134 -73 72 -53 82 -64 103
-118 13 -32 23 -70 23 -84 0 -33 -39 -150 -61 -182 -10 -14 -20 -36 -24 -50
-7 -27 -156 -189 -174 -189 -6 0 -23 -19 -37 -42 -15 -24 -34 -47 -42 -52 -30
-18 -167 -162 -179 -188 -7 -15 -28 -38 -47 -50 -19 -12 -42 -35 -51 -50 -9
-16 -34 -43 -57 -60 -22 -18 -49 -50 -59 -70 -11 -21 -32 -44 -49 -53 -16 -8
-43 -35 -59 -58 -16 -24 -41 -51 -55 -61 -14 -9 -35 -34 -46 -57 -12 -22 -32
-45 -45 -51 -14 -6 -43 -35 -65 -65 -23 -29 -45 -53 -51 -53 -5 0 -23 -21 -39
-46 -16 -26 -43 -56 -59 -68 -34 -24 -148 -147 -173 -187 -9 -15 -33 -36 -52
-48 -19 -12 -44 -37 -55 -56 -12 -21 -50 -54 -93 -82 -142 -92 -328 -127 -683
-127 -124 -1 -362 11 -404 20 -21 5 -19 8 25 31 59 31 104 71 104 93 0 9 -18
43 -41 74 -35 48 -40 63 -36 94 7 53 46 151 79 196 15 22 28 45 28 52 0 7 16
25 35 41 48 40 155 163 186 215 20 33 28 61 32 123 6 77 32 224 42 234 3 2 21
-3 40 -12 52 -25 97 -21 164 13 43 22 66 42 82 69 11 21 34 46 50 55 17 10 41
34 55 55 13 21 38 47 54 60 17 12 36 37 44 56 8 19 49 67 90 107 42 40 76 81
76 91 0 34 -79 105 -171 152 -122 63 -190 85 -284 92 -72 5 -87 3 -144 -22
-73 -30 -83 -28 -155 29 -59 47 -185 113 -242 127 -27 6 -67 22 -89 34 -22 12
-72 34 -111 49 -39 15 -86 38 -104 51 -18 13 -49 30 -69 36 -20 6 -68 29 -107
50 -127 69 -153 71 -724 69 -926 -5 -953 -6 -982 -20 -31 -14 -91 -99 -107
-150 -8 -27 -29 -48 -88 -91 -96 -68 -210 -130 -283 -154 -98 -32 -245 -122
-276 -170 -14 -22 -14 -27 0 -56 9 -18 16 -53 16 -78 0 -25 5 -75 10 -111 5
-36 12 -122 15 -192 6 -121 5 -130 -20 -193 -34 -85 -34 -105 4 -205 26 -66
31 -93 27 -124 -8 -48 27 -161 54 -176 10 -5 28 -27 41 -47 12 -21 35 -51 50
-68 31 -33 79 -152 79 -195 0 -15 -11 -52 -25 -82 -43 -91 -36 -105 80 -160
43 -20 83 -32 105 -30 242 12 833 20 1465 21 626 0 790 -2 830 -13 l50 -13
-30 -14 c-24 -11 -194 -15 -926 -19 -493 -3 -1004 -2 -1135 2 -282 9 -234 8
-369 4 -60 -2 -172 -11 -248 -20 -77 -9 -164 -16 -195 -16 -32 0 -95 -9 -142
-21 -154 -37 -314 -22 -403 40 -23 15 -62 38 -86 51 -24 12 -65 41 -90 64 -25
23 -58 50 -74 59 -15 10 -37 33 -49 51 -12 18 -41 45 -64 60 -23 15 -49 37
-58 50 -8 13 -63 72 -121 130 -58 59 -105 110 -105 115 0 4 -47 56 -105 114
-58 58 -105 110 -105 115 0 5 -47 57 -105 116 -58 58 -105 110 -105 114 0 12
-142 157 -167 171 -13 6 -30 26 -39 44 -9 18 -63 78 -120 134 -57 55 -104 106
-104 113 0 6 -48 60 -107 119 -133 133 -163 179 -163 253 0 53 4 63 68 177 28
52 118 118 244 181 96 48 157 65 343 95 44 7 94 19 110 25 17 6 66 20 110 30
277 65 435 142 435 212 0 31 -29 66 -81 97 -26 17 -60 48 -75 70 -14 22 -37
47 -50 56 -13 8 -33 33 -44 54 -10 22 -35 49 -54 60 -19 12 -44 36 -55 54 -11
18 -35 46 -53 62 -30 28 -81 94 -116 149 -17 28 -10 157 10 188 9 13 19 39 23
58 4 19 18 51 31 70 13 19 24 42 24 51 0 9 11 33 25 53 14 21 32 52 39 71 8
18 25 41 38 49 13 9 34 33 46 54 11 21 31 47 42 57 12 11 28 35 36 54 8 19 32
53 54 76 21 22 61 63 89 92 28 29 51 59 51 68 0 15 46 68 139 162 25 24 52 61
62 83 9 21 26 43 38 49 11 6 30 29 42 52 13 22 38 49 56 61 19 11 42 37 53 58
11 21 46 66 79 101 l60 63 108 23 c85 18 125 21 188 16 44 -3 949 -6 2010 -7z
m4330 -1454 c148 -12 258 -15 335 -10 155 9 172 9 660 5 234 -2 468 -8 521
-12 58 -4 163 -3 268 5 152 11 199 10 382 -5 181 -16 231 -16 364 -6 96 7 235
9 367 5 171 -5 232 -3 308 10 111 19 204 20 302 5 51 -8 107 -8 202 0 199 16
619 18 624 3 6 -20 -62 -78 -131 -111 -95 -46 -193 -54 -492 -41 -137 6 -450
10 -695 10 -356 0 -461 3 -523 15 -100 19 -167 19 -297 0 -86 -13 -143 -14
-362 -6 -284 11 -279 11 -396 -48 -75 -38 -206 -124 -249 -165 -35 -32 -43
-70 -20 -98 6 -9 37 -29 69 -43 79 -37 94 -56 80 -101 -9 -29 -7 -45 9 -91 10
-30 29 -71 41 -92 21 -33 23 -49 25 -216 2 -99 3 -195 4 -213 0 -20 -12 -53
-36 -91 -30 -50 -35 -65 -29 -98 8 -53 -30 -135 -90 -193 -59 -57 -61 -84 -7
-133 21 -19 59 -47 85 -62 26 -15 52 -37 58 -48 7 -14 12 -93 13 -212 2 -105
8 -206 14 -225 22 -70 15 -104 -34 -158 -56 -62 -58 -88 -8 -142 34 -38 37
-48 49 -142 12 -88 11 -112 -2 -177 -15 -72 -15 -166 1 -239 5 -20 3 -38 -5
-47 -24 -29 -116 -73 -176 -84 -34 -6 -98 -27 -142 -46 -94 -41 -183 -47 -241
-17 -49 24 -59 44 -42 84 22 54 61 208 61 240 0 16 9 42 19 57 11 15 29 50 40
78 18 47 19 55 6 104 -21 76 -19 109 12 207 26 85 26 88 15 206 -11 114 -4
340 13 401 3 11 -3 49 -15 84 -25 80 -25 124 1 181 28 63 34 126 16 175 -59
154 -64 175 -70 276 -5 77 -3 118 8 159 14 54 20 62 100 125 55 44 51 71 -19
145 -47 49 -56 64 -56 94 0 37 -43 126 -87 179 -52 64 -38 107 53 158 99 56
107 104 28 164 -33 25 -63 36 -152 53 -104 21 -140 22 -584 22 -349 0 -499 4
-571 14 -127 18 -165 48 -117 91 16 14 44 20 118 25 143 10 139 10 377 -8z
m-2717 -1597 c14 -65 10 -226 -7 -310 -6 -27 -13 -71 -16 -97 -7 -53 -24 -62
-44 -25 -15 27 -12 462 2 485 5 7 19 12 30 10 18 -2 24 -14 35 -63z"/>
<path d="M7835 6298 c-34 -12 -135 -79 -152 -99 -5 -8 -13 -25 -16 -39 -4 -14
-27 -52 -52 -84 -62 -80 -63 -105 -5 -181 21 -27 41 -61 45 -75 8 -30 99 -126
137 -146 15 -8 54 -17 86 -20 52 -6 62 -4 81 15 17 17 20 29 15 59 -7 43 -9
336 -4 461 3 78 2 85 -19 102 -26 21 -70 23 -116 7z"/>
<path d="M11154 6292 c-6 -4 -19 -22 -28 -39 -14 -28 -16 -67 -14 -297 3 -303
2 -297 84 -299 27 -1 61 2 76 6 27 7 101 95 134 159 9 18 34 53 56 77 54 62
56 81 19 139 -17 26 -42 59 -56 72 -13 12 -29 38 -36 57 -7 21 -33 52 -70 83
-53 44 -65 50 -107 50 -26 0 -52 -4 -58 -8z"/>
<path d="M7213 4469 c-18 -5 -40 -21 -49 -34 -28 -43 -3 -82 186 -285 77 -83
140 -159 140 -171 0 -6 24 -35 53 -64 80 -82 116 -129 131 -171 10 -31 24 -45
71 -71 71 -41 101 -41 153 -3 l42 30 0 76 c0 42 -5 141 -11 221 -9 108 -9 157
-1 196 31 139 -51 207 -248 207 -50 0 -88 7 -137 26 -124 47 -257 64 -330 43z"/>
</g>
</svg>
